<mxfile host="app.diagrams.net" modified="2022-10-22T11:36:59.945Z" agent="5.0 (Macintosh)" etag="D-tYEfVmyyEGKvGnV04I" version="20.4.2" type="github" pages="5">
  <diagram id="2sO_4onhugDU0Kl1AgzK" name="Version-1">
    <mxGraphModel dx="946" dy="617" grid="1" gridSize="10" guides="1" tooltips="1" connect="1" arrows="1" fold="1" page="1" pageScale="1" pageWidth="850" pageHeight="1100" math="0" shadow="0">
      <root>
        <mxCell id="0" />
        <mxCell id="1" parent="0" />
        <mxCell id="2VTOW2IW8ZpL9YFtVFEM-12" value="" style="edgeStyle=entityRelationEdgeStyle;fontSize=12;html=1;endArrow=ERzeroToMany;startArrow=ERzeroToOne;rounded=0;exitX=0;exitY=0.5;exitDx=0;exitDy=0;entryX=1;entryY=0.5;entryDx=0;entryDy=0;" parent="1" source="oM1QNY0bsyNBVNweQzOE-21" target="2VTOW2IW8ZpL9YFtVFEM-6" edge="1">
          <mxGeometry width="100" height="100" relative="1" as="geometry">
            <mxPoint x="670" y="150" as="sourcePoint" />
            <mxPoint x="630" y="320" as="targetPoint" />
          </mxGeometry>
        </mxCell>
        <mxCell id="2VTOW2IW8ZpL9YFtVFEM-13" value="" style="edgeStyle=entityRelationEdgeStyle;fontSize=12;html=1;endArrow=ERzeroToMany;startArrow=ERzeroToOne;rounded=0;entryX=0;entryY=0.25;entryDx=0;entryDy=0;" parent="1" source="oM1QNY0bsyNBVNweQzOE-19" target="2VTOW2IW8ZpL9YFtVFEM-6" edge="1">
          <mxGeometry width="100" height="100" relative="1" as="geometry">
            <mxPoint x="350" y="130" as="sourcePoint" />
            <mxPoint x="410" y="280" as="targetPoint" />
          </mxGeometry>
        </mxCell>
        <mxCell id="2VTOW2IW8ZpL9YFtVFEM-15" value="" style="group;" parent="1" vertex="1" connectable="0">
          <mxGeometry x="462.5" y="180" width="171.25" height="130" as="geometry" />
        </mxCell>
        <mxCell id="2VTOW2IW8ZpL9YFtVFEM-6" value="" style="rounded=0;whiteSpace=wrap;html=1;fillColor=#FFFF99;" parent="2VTOW2IW8ZpL9YFtVFEM-15" vertex="1">
          <mxGeometry width="170" height="130" as="geometry" />
        </mxCell>
        <mxCell id="2VTOW2IW8ZpL9YFtVFEM-14" value="&lt;div&gt;FK(Teacher)&lt;/div&gt;&lt;div&gt;FK(CourseCategory)&lt;br&gt;&lt;/div&gt;&lt;div&gt;FK(Quiz)&lt;/div&gt;&lt;div&gt;FK(OfferedQuizAnswer)&lt;/div&gt;" style="text;html=1;align=left;verticalAlign=middle;resizable=0;points=[];autosize=1;strokeColor=none;fillColor=none;" parent="2VTOW2IW8ZpL9YFtVFEM-15" vertex="1">
          <mxGeometry x="17.08" y="24.546363636363637" width="150" height="70" as="geometry" />
        </mxCell>
        <mxCell id="2VTOW2IW8ZpL9YFtVFEM-16" value="CourseCategoryQuiz" style="text;whiteSpace=wrap;html=1;fontStyle=1" parent="2VTOW2IW8ZpL9YFtVFEM-15" vertex="1">
          <mxGeometry x="14.166666666666668" width="155.83333333333334" height="24.545454545454547" as="geometry" />
        </mxCell>
        <mxCell id="oM1QNY0bsyNBVNweQzOE-1" value="Answer" style="whiteSpace=wrap;html=1;aspect=fixed;fontStyle=1" parent="1" vertex="1">
          <mxGeometry x="700" y="240" width="80" height="80" as="geometry" />
        </mxCell>
        <mxCell id="oM1QNY0bsyNBVNweQzOE-7" value="" style="group;fillColor=#FFE6CC;" parent="1" vertex="1" connectable="0">
          <mxGeometry x="455" y="430" width="185" height="80" as="geometry" />
        </mxCell>
        <mxCell id="oM1QNY0bsyNBVNweQzOE-8" value="" style="rounded=0;whiteSpace=wrap;html=1;fillColor=#FFE6CC;" parent="oM1QNY0bsyNBVNweQzOE-7" vertex="1">
          <mxGeometry width="185.00000000000003" height="80" as="geometry" />
        </mxCell>
        <mxCell id="oM1QNY0bsyNBVNweQzOE-9" value="&lt;div&gt;FK(Student)&lt;/div&gt;&lt;div&gt;FK(CourseCategoryQuiz)&lt;br&gt;&lt;/div&gt;" style="text;html=1;align=left;verticalAlign=middle;resizable=0;points=[];autosize=1;strokeColor=none;fillColor=none;" parent="oM1QNY0bsyNBVNweQzOE-7" vertex="1">
          <mxGeometry x="15.415000000000003" y="22.2189898989899" width="160" height="40" as="geometry" />
        </mxCell>
        <mxCell id="oM1QNY0bsyNBVNweQzOE-10" value="StudentQuizSolution" style="text;whiteSpace=wrap;html=1;fontStyle=1" parent="oM1QNY0bsyNBVNweQzOE-7" vertex="1">
          <mxGeometry x="15.416666666666666" width="169.58333333333334" height="21.818181818181817" as="geometry" />
        </mxCell>
        <mxCell id="oM1QNY0bsyNBVNweQzOE-17" value="" style="edgeStyle=entityRelationEdgeStyle;fontSize=12;html=1;endArrow=ERzeroToMany;startArrow=ERzeroToOne;rounded=0;exitX=0;exitY=0.5;exitDx=0;exitDy=0;" parent="1" source="oM1QNY0bsyNBVNweQzOE-1" target="oM1QNY0bsyNBVNweQzOE-8" edge="1">
          <mxGeometry width="100" height="100" relative="1" as="geometry">
            <mxPoint x="642.5000000000005" y="250" as="sourcePoint" />
            <mxPoint x="580" y="380" as="targetPoint" />
          </mxGeometry>
        </mxCell>
        <mxCell id="oM1QNY0bsyNBVNweQzOE-18" value="" style="endArrow=classic;html=1;rounded=0;exitX=0.5;exitY=1;exitDx=0;exitDy=0;entryX=0.455;entryY=0;entryDx=0;entryDy=0;entryPerimeter=0;" parent="1" source="2VTOW2IW8ZpL9YFtVFEM-6" target="oM1QNY0bsyNBVNweQzOE-10" edge="1">
          <mxGeometry width="50" height="50" relative="1" as="geometry">
            <mxPoint x="530" y="340" as="sourcePoint" />
            <mxPoint x="580" y="290" as="targetPoint" />
          </mxGeometry>
        </mxCell>
        <mxCell id="oM1QNY0bsyNBVNweQzOE-24" style="edgeStyle=orthogonalEdgeStyle;rounded=0;orthogonalLoop=1;jettySize=auto;html=1;entryX=0.5;entryY=0;entryDx=0;entryDy=0;" parent="1" source="oM1QNY0bsyNBVNweQzOE-19" target="oM1QNY0bsyNBVNweQzOE-22" edge="1">
          <mxGeometry relative="1" as="geometry" />
        </mxCell>
        <mxCell id="oM1QNY0bsyNBVNweQzOE-19" value="Teacher" style="rounded=0;whiteSpace=wrap;html=1;fontStyle=1" parent="1" vertex="1">
          <mxGeometry x="280" y="120" width="120" height="60" as="geometry" />
        </mxCell>
        <mxCell id="oM1QNY0bsyNBVNweQzOE-21" value="CourseCateory" style="rounded=0;whiteSpace=wrap;html=1;fontStyle=1" parent="1" vertex="1">
          <mxGeometry x="670" y="110" width="100" height="60" as="geometry" />
        </mxCell>
        <mxCell id="oM1QNY0bsyNBVNweQzOE-27" value="" style="edgeStyle=entityRelationEdgeStyle;fontSize=12;html=1;endArrow=ERzeroToMany;startArrow=ERzeroToOne;rounded=0;entryX=0;entryY=0.5;entryDx=0;entryDy=0;exitX=1;exitY=0.571;exitDx=0;exitDy=0;exitPerimeter=0;" parent="1" source="oM1QNY0bsyNBVNweQzOE-22" target="2VTOW2IW8ZpL9YFtVFEM-6" edge="1">
          <mxGeometry width="100" height="100" relative="1" as="geometry">
            <mxPoint x="390" y="260" as="sourcePoint" />
            <mxPoint x="472.5" y="355" as="targetPoint" />
          </mxGeometry>
        </mxCell>
        <mxCell id="oM1QNY0bsyNBVNweQzOE-32" value="" style="group" parent="1" vertex="1" connectable="0">
          <mxGeometry x="120" y="190" width="90" height="90" as="geometry" />
        </mxCell>
        <mxCell id="oM1QNY0bsyNBVNweQzOE-29" value="" style="rounded=0;whiteSpace=wrap;html=1;" parent="oM1QNY0bsyNBVNweQzOE-32" vertex="1">
          <mxGeometry width="90" height="90" as="geometry" />
        </mxCell>
        <mxCell id="oM1QNY0bsyNBVNweQzOE-30" value="InputType" style="text;html=1;align=center;verticalAlign=middle;resizable=0;points=[];autosize=1;strokeColor=none;fillColor=none;fontStyle=1" parent="oM1QNY0bsyNBVNweQzOE-32" vertex="1">
          <mxGeometry x="5.0000000000000036" width="80" height="30" as="geometry" />
        </mxCell>
        <mxCell id="oM1QNY0bsyNBVNweQzOE-31" value="&lt;div&gt;Text&lt;/div&gt;&lt;div&gt;Select&lt;/div&gt;&lt;div&gt;Multi-select&lt;br&gt;&lt;/div&gt;" style="text;html=1;align=left;verticalAlign=middle;resizable=0;points=[];autosize=1;strokeColor=none;fillColor=none;" parent="oM1QNY0bsyNBVNweQzOE-32" vertex="1">
          <mxGeometry x="7.496250000000005" y="19.995844155844107" width="80" height="60" as="geometry" />
        </mxCell>
        <mxCell id="oM1QNY0bsyNBVNweQzOE-33" value="" style="group" parent="1" vertex="1" connectable="0">
          <mxGeometry x="280" y="200" width="120" height="100" as="geometry" />
        </mxCell>
        <mxCell id="oM1QNY0bsyNBVNweQzOE-22" value="" style="rounded=0;whiteSpace=wrap;html=1;" parent="oM1QNY0bsyNBVNweQzOE-33" vertex="1">
          <mxGeometry width="120" height="100" as="geometry" />
        </mxCell>
        <mxCell id="oM1QNY0bsyNBVNweQzOE-25" value="Quiz" style="text;html=1;align=center;verticalAlign=middle;resizable=0;points=[];autosize=1;strokeColor=none;fillColor=none;fontStyle=1" parent="oM1QNY0bsyNBVNweQzOE-33" vertex="1">
          <mxGeometry x="35" width="50" height="30" as="geometry" />
        </mxCell>
        <mxCell id="oM1QNY0bsyNBVNweQzOE-26" value="&lt;div&gt;FK(Teacher)&lt;/div&gt;&lt;div&gt;FK(InputType)&lt;br&gt;&lt;/div&gt;" style="text;html=1;align=left;verticalAlign=middle;resizable=0;points=[];autosize=1;strokeColor=none;fillColor=none;" parent="oM1QNY0bsyNBVNweQzOE-33" vertex="1">
          <mxGeometry x="15.004999999999995" y="28.56998556998552" width="100" height="40" as="geometry" />
        </mxCell>
        <mxCell id="oM1QNY0bsyNBVNweQzOE-35" value="Question-title" style="text;html=1;align=center;verticalAlign=middle;resizable=0;points=[];autosize=1;strokeColor=none;fillColor=none;" parent="oM1QNY0bsyNBVNweQzOE-33" vertex="1">
          <mxGeometry x="10" y="70" width="90" height="30" as="geometry" />
        </mxCell>
        <mxCell id="oM1QNY0bsyNBVNweQzOE-34" value="" style="edgeStyle=entityRelationEdgeStyle;fontSize=12;html=1;endArrow=ERzeroToMany;startArrow=ERzeroToOne;rounded=0;entryX=0;entryY=0.75;entryDx=0;entryDy=0;exitX=1.025;exitY=0.433;exitDx=0;exitDy=0;exitPerimeter=0;" parent="1" source="oM1QNY0bsyNBVNweQzOE-29" target="oM1QNY0bsyNBVNweQzOE-22" edge="1">
          <mxGeometry width="100" height="100" relative="1" as="geometry">
            <mxPoint x="220" y="242.47000000000003" as="sourcePoint" />
            <mxPoint x="302.5" y="230" as="targetPoint" />
          </mxGeometry>
        </mxCell>
        <mxCell id="oM1QNY0bsyNBVNweQzOE-37" value="" style="group" parent="1" vertex="1" connectable="0">
          <mxGeometry x="280" y="310" width="150" height="170" as="geometry" />
        </mxCell>
        <mxCell id="oM1QNY0bsyNBVNweQzOE-38" value="" style="rounded=0;whiteSpace=wrap;html=1;" parent="oM1QNY0bsyNBVNweQzOE-37" vertex="1">
          <mxGeometry width="138.46153846153845" height="168.59504132231405" as="geometry" />
        </mxCell>
        <mxCell id="oM1QNY0bsyNBVNweQzOE-39" value="OfferedQuizAnswers" style="text;html=1;align=center;verticalAlign=middle;resizable=0;points=[];autosize=1;strokeColor=none;fillColor=none;fontStyle=1" parent="oM1QNY0bsyNBVNweQzOE-37" vertex="1">
          <mxGeometry x="0.0015384615384625988" width="140" height="30" as="geometry" />
        </mxCell>
        <mxCell id="oM1QNY0bsyNBVNweQzOE-41" value="&lt;div&gt;a.&lt;/div&gt;&lt;div&gt;b.&lt;/div&gt;&lt;div&gt;c.&lt;/div&gt;&lt;div&gt;d.&lt;br&gt;&lt;/div&gt;&lt;div&gt;Right Answer&lt;br&gt;&lt;/div&gt;" style="text;html=1;align=left;verticalAlign=middle;resizable=0;points=[];autosize=1;strokeColor=none;fillColor=none;" parent="oM1QNY0bsyNBVNweQzOE-37" vertex="1">
          <mxGeometry x="11.538461538461537" y="70.00346556473829" width="90" height="90" as="geometry" />
        </mxCell>
        <mxCell id="oM1QNY0bsyNBVNweQzOE-45" value="&lt;div&gt;FK(InputType)&lt;br&gt;&lt;/div&gt;&lt;div&gt;FK(OfferedAnswer)&lt;br&gt;&lt;/div&gt;" style="text;html=1;align=left;verticalAlign=middle;resizable=0;points=[];autosize=1;strokeColor=none;fillColor=none;" parent="oM1QNY0bsyNBVNweQzOE-37" vertex="1">
          <mxGeometry x="8.463076923076926" y="29.996666666666663" width="130" height="40" as="geometry" />
        </mxCell>
        <mxCell id="oM1QNY0bsyNBVNweQzOE-43" value="" style="edgeStyle=entityRelationEdgeStyle;fontSize=12;html=1;endArrow=ERzeroToMany;startArrow=ERzeroToOne;rounded=0;entryX=0.003;entryY=0.708;entryDx=0;entryDy=0;exitX=1.017;exitY=0.356;exitDx=0;exitDy=0;exitPerimeter=0;entryPerimeter=0;" parent="1" source="oM1QNY0bsyNBVNweQzOE-38" target="2VTOW2IW8ZpL9YFtVFEM-6" edge="1">
          <mxGeometry width="100" height="100" relative="1" as="geometry">
            <mxPoint x="378.0050000000001" y="393.0099855699855" as="sourcePoint" />
            <mxPoint x="475.5" y="327.9" as="targetPoint" />
          </mxGeometry>
        </mxCell>
        <mxCell id="oM1QNY0bsyNBVNweQzOE-44" value="" style="edgeStyle=entityRelationEdgeStyle;fontSize=12;html=1;endArrow=ERzeroToMany;startArrow=ERzeroToOne;rounded=0;entryX=0;entryY=0.5;entryDx=0;entryDy=0;exitX=1.031;exitY=0.9;exitDx=0;exitDy=0;exitPerimeter=0;" parent="1" source="oM1QNY0bsyNBVNweQzOE-31" target="oM1QNY0bsyNBVNweQzOE-38" edge="1">
          <mxGeometry width="100" height="100" relative="1" as="geometry">
            <mxPoint x="240" y="340" as="sourcePoint" />
            <mxPoint x="267" y="386.03" as="targetPoint" />
          </mxGeometry>
        </mxCell>
        <mxCell id="oM1QNY0bsyNBVNweQzOE-50" value="" style="group" parent="1" vertex="1" connectable="0">
          <mxGeometry x="100" y="360" width="110" height="80" as="geometry" />
        </mxCell>
        <mxCell id="oM1QNY0bsyNBVNweQzOE-55" value="" style="group" parent="oM1QNY0bsyNBVNweQzOE-50" vertex="1" connectable="0">
          <mxGeometry x="20" y="10" width="110" height="79.33866666666665" as="geometry" />
        </mxCell>
        <mxCell id="oM1QNY0bsyNBVNweQzOE-51" value="" style="rounded=0;whiteSpace=wrap;html=1;" parent="oM1QNY0bsyNBVNweQzOE-55" vertex="1">
          <mxGeometry width="104.76190476190477" height="79.33866666666665" as="geometry" />
        </mxCell>
        <mxCell id="oM1QNY0bsyNBVNweQzOE-52" value="&lt;div align=&quot;left&quot;&gt;OfferedAnswer&lt;/div&gt;" style="text;html=1;align=left;verticalAlign=middle;resizable=0;points=[];autosize=1;strokeColor=none;fillColor=none;fontStyle=1" parent="oM1QNY0bsyNBVNweQzOE-55" vertex="1">
          <mxGeometry x="7.857142857142857" y="10" width="110" height="30" as="geometry" />
        </mxCell>
        <mxCell id="oM1QNY0bsyNBVNweQzOE-53" value="a.xxx" style="text;html=1;align=left;verticalAlign=middle;resizable=0;points=[];autosize=1;strokeColor=none;fillColor=none;" parent="oM1QNY0bsyNBVNweQzOE-55" vertex="1">
          <mxGeometry x="7.859761904761905" y="29.668297520661163" width="50" height="30" as="geometry" />
        </mxCell>
        <mxCell id="oM1QNY0bsyNBVNweQzOE-58" value="" style="edgeStyle=entityRelationEdgeStyle;fontSize=12;html=1;endArrow=ERzeroToMany;endFill=1;startArrow=ERzeroToMany;rounded=0;entryX=0;entryY=0.75;entryDx=0;entryDy=0;exitX=1.028;exitY=0.429;exitDx=0;exitDy=0;exitPerimeter=0;" parent="1" source="oM1QNY0bsyNBVNweQzOE-51" target="oM1QNY0bsyNBVNweQzOE-38" edge="1">
          <mxGeometry width="100" height="100" relative="1" as="geometry">
            <mxPoint x="200" y="590" as="sourcePoint" />
            <mxPoint x="300" y="490" as="targetPoint" />
          </mxGeometry>
        </mxCell>
        <mxCell id="oM1QNY0bsyNBVNweQzOE-59" value="Student" style="rounded=0;whiteSpace=wrap;html=1;fontStyle=1" parent="1" vertex="1">
          <mxGeometry x="310" y="510" width="80" height="60" as="geometry" />
        </mxCell>
        <mxCell id="oM1QNY0bsyNBVNweQzOE-60" value="" style="edgeStyle=entityRelationEdgeStyle;fontSize=12;html=1;endArrow=ERzeroToMany;startArrow=ERzeroToOne;rounded=0;exitX=1;exitY=0.4;exitDx=0;exitDy=0;entryX=0.005;entryY=0.675;entryDx=0;entryDy=0;exitPerimeter=0;entryPerimeter=0;" parent="1" source="oM1QNY0bsyNBVNweQzOE-59" target="oM1QNY0bsyNBVNweQzOE-8" edge="1">
          <mxGeometry width="100" height="100" relative="1" as="geometry">
            <mxPoint x="710" y="290" as="sourcePoint" />
            <mxPoint x="650" y="480" as="targetPoint" />
          </mxGeometry>
        </mxCell>
      </root>
    </mxGraphModel>
  </diagram>
  <diagram id="sBkRYG04THUq0nD2NC1Z" name="Version-2">
    <mxGraphModel dx="946" dy="617" grid="1" gridSize="10" guides="1" tooltips="1" connect="1" arrows="1" fold="1" page="1" pageScale="1" pageWidth="850" pageHeight="1100" math="0" shadow="0">
      <root>
        <mxCell id="0" />
        <mxCell id="1" parent="0" />
        <mxCell id="zOwiAkLwuJnWZPbeNpUU-1" value="" style="edgeStyle=entityRelationEdgeStyle;fontSize=12;html=1;endArrow=ERzeroToMany;startArrow=ERzeroToOne;rounded=0;exitX=0;exitY=0.5;exitDx=0;exitDy=0;entryX=1;entryY=0.5;entryDx=0;entryDy=0;" edge="1" parent="1" source="zOwiAkLwuJnWZPbeNpUU-16" target="zOwiAkLwuJnWZPbeNpUU-4">
          <mxGeometry width="100" height="100" relative="1" as="geometry">
            <mxPoint x="700" y="110" as="sourcePoint" />
            <mxPoint x="660" y="280" as="targetPoint" />
          </mxGeometry>
        </mxCell>
        <mxCell id="zOwiAkLwuJnWZPbeNpUU-2" value="" style="edgeStyle=entityRelationEdgeStyle;fontSize=12;html=1;endArrow=ERzeroToMany;startArrow=ERzeroToOne;rounded=0;entryX=0;entryY=0.25;entryDx=0;entryDy=0;exitX=1;exitY=0.25;exitDx=0;exitDy=0;" edge="1" parent="1" source="zOwiAkLwuJnWZPbeNpUU-15" target="zOwiAkLwuJnWZPbeNpUU-4">
          <mxGeometry width="100" height="100" relative="1" as="geometry">
            <mxPoint x="320" y="50" as="sourcePoint" />
            <mxPoint x="440" y="240" as="targetPoint" />
          </mxGeometry>
        </mxCell>
        <mxCell id="zOwiAkLwuJnWZPbeNpUU-3" value="" style="group;" vertex="1" connectable="0" parent="1">
          <mxGeometry x="492.5" y="140" width="171.25" height="130" as="geometry" />
        </mxCell>
        <mxCell id="zOwiAkLwuJnWZPbeNpUU-4" value="" style="rounded=0;whiteSpace=wrap;html=1;fillColor=#FFFF99;" vertex="1" parent="zOwiAkLwuJnWZPbeNpUU-3">
          <mxGeometry width="170" height="130" as="geometry" />
        </mxCell>
        <mxCell id="zOwiAkLwuJnWZPbeNpUU-5" value="&lt;div&gt;FK(Teacher)&lt;/div&gt;&lt;div&gt;FK(CourseCategory)&lt;br&gt;&lt;/div&gt;&lt;div&gt;FK(InputType)&lt;/div&gt;&lt;div&gt;FK(OfferedQuizAnswer)&lt;/div&gt;" style="text;html=1;align=left;verticalAlign=middle;resizable=0;points=[];autosize=1;strokeColor=none;fillColor=none;" vertex="1" parent="zOwiAkLwuJnWZPbeNpUU-3">
          <mxGeometry x="17.08" y="24.546363636363637" width="150" height="70" as="geometry" />
        </mxCell>
        <mxCell id="zOwiAkLwuJnWZPbeNpUU-6" value="CourseCategoryQuiz" style="text;whiteSpace=wrap;html=1;fontStyle=1" vertex="1" parent="zOwiAkLwuJnWZPbeNpUU-3">
          <mxGeometry x="14.166666666666668" width="155.83333333333334" height="24.545454545454547" as="geometry" />
        </mxCell>
        <mxCell id="byFegEmHWk51fzB0Tt7N-1" value="Question-title" style="text;html=1;align=center;verticalAlign=middle;resizable=0;points=[];autosize=1;strokeColor=none;fillColor=none;" vertex="1" parent="zOwiAkLwuJnWZPbeNpUU-3">
          <mxGeometry x="17.08000000000004" y="94.55000000000001" width="90" height="30" as="geometry" />
        </mxCell>
        <mxCell id="zOwiAkLwuJnWZPbeNpUU-8" value="" style="group;fillColor=#FFE6CC;" vertex="1" connectable="0" parent="1">
          <mxGeometry x="485" y="390" width="185" height="90" as="geometry" />
        </mxCell>
        <mxCell id="zOwiAkLwuJnWZPbeNpUU-9" value="" style="rounded=0;whiteSpace=wrap;html=1;fillColor=#FFE6CC;" vertex="1" parent="zOwiAkLwuJnWZPbeNpUU-8">
          <mxGeometry width="185.00000000000003" height="90" as="geometry" />
        </mxCell>
        <mxCell id="zOwiAkLwuJnWZPbeNpUU-10" value="&lt;div&gt;FK(Student)&lt;/div&gt;&lt;div&gt;FK(CourseCategoryQuiz)&lt;br&gt;&lt;/div&gt;" style="text;html=1;align=left;verticalAlign=middle;resizable=0;points=[];autosize=1;strokeColor=none;fillColor=none;" vertex="1" parent="zOwiAkLwuJnWZPbeNpUU-8">
          <mxGeometry x="15.415000000000003" y="24.996363636363636" width="160" height="40" as="geometry" />
        </mxCell>
        <mxCell id="zOwiAkLwuJnWZPbeNpUU-11" value="StudentQuizSolution" style="text;whiteSpace=wrap;html=1;fontStyle=1" vertex="1" parent="zOwiAkLwuJnWZPbeNpUU-8">
          <mxGeometry x="15.416666666666666" width="169.58333333333334" height="24.545454545454543" as="geometry" />
        </mxCell>
        <mxCell id="byFegEmHWk51fzB0Tt7N-2" value="Student Answer" style="text;html=1;align=center;verticalAlign=middle;resizable=0;points=[];autosize=1;strokeColor=none;fillColor=none;" vertex="1" parent="zOwiAkLwuJnWZPbeNpUU-8">
          <mxGeometry x="10" y="60" width="110" height="30" as="geometry" />
        </mxCell>
        <mxCell id="zOwiAkLwuJnWZPbeNpUU-13" value="" style="endArrow=classic;html=1;rounded=0;exitX=0.5;exitY=1;exitDx=0;exitDy=0;entryX=0.455;entryY=0;entryDx=0;entryDy=0;entryPerimeter=0;" edge="1" parent="1" source="zOwiAkLwuJnWZPbeNpUU-4" target="zOwiAkLwuJnWZPbeNpUU-11">
          <mxGeometry width="50" height="50" relative="1" as="geometry">
            <mxPoint x="560" y="300" as="sourcePoint" />
            <mxPoint x="610" y="250" as="targetPoint" />
          </mxGeometry>
        </mxCell>
        <mxCell id="zOwiAkLwuJnWZPbeNpUU-15" value="Teacher" style="rounded=0;whiteSpace=wrap;html=1;fontStyle=1" vertex="1" parent="1">
          <mxGeometry x="110" y="30" width="120" height="60" as="geometry" />
        </mxCell>
        <mxCell id="zOwiAkLwuJnWZPbeNpUU-16" value="CourseCategory" style="rounded=0;whiteSpace=wrap;html=1;fontStyle=1" vertex="1" parent="1">
          <mxGeometry x="700" y="70" width="100" height="60" as="geometry" />
        </mxCell>
        <mxCell id="zOwiAkLwuJnWZPbeNpUU-18" value="" style="group" vertex="1" connectable="0" parent="1">
          <mxGeometry x="90" y="130" width="100" height="90" as="geometry" />
        </mxCell>
        <mxCell id="zOwiAkLwuJnWZPbeNpUU-19" value="" style="rounded=0;whiteSpace=wrap;html=1;" vertex="1" parent="zOwiAkLwuJnWZPbeNpUU-18">
          <mxGeometry width="90" height="90" as="geometry" />
        </mxCell>
        <mxCell id="zOwiAkLwuJnWZPbeNpUU-20" value="InputQuizType" style="text;html=1;align=center;verticalAlign=middle;resizable=0;points=[];autosize=1;strokeColor=none;fillColor=none;fontStyle=1" vertex="1" parent="zOwiAkLwuJnWZPbeNpUU-18">
          <mxGeometry x="-9.999999999999996" width="110" height="30" as="geometry" />
        </mxCell>
        <mxCell id="zOwiAkLwuJnWZPbeNpUU-21" value="&lt;div&gt;Text&lt;/div&gt;&lt;div&gt;Select&lt;/div&gt;&lt;div&gt;Multi-select&lt;br&gt;&lt;/div&gt;" style="text;html=1;align=left;verticalAlign=middle;resizable=0;points=[];autosize=1;strokeColor=none;fillColor=none;" vertex="1" parent="zOwiAkLwuJnWZPbeNpUU-18">
          <mxGeometry x="7.496250000000005" y="19.995844155844107" width="80" height="60" as="geometry" />
        </mxCell>
        <mxCell id="zOwiAkLwuJnWZPbeNpUU-27" value="" style="edgeStyle=entityRelationEdgeStyle;fontSize=12;html=1;endArrow=ERzeroToMany;startArrow=ERzeroToOne;rounded=0;exitX=1.025;exitY=0.433;exitDx=0;exitDy=0;exitPerimeter=0;entryX=0.009;entryY=0.438;entryDx=0;entryDy=0;entryPerimeter=0;" edge="1" parent="1" source="zOwiAkLwuJnWZPbeNpUU-19" target="zOwiAkLwuJnWZPbeNpUU-4">
          <mxGeometry width="100" height="100" relative="1" as="geometry">
            <mxPoint x="180" y="202.47000000000003" as="sourcePoint" />
            <mxPoint x="420" y="200" as="targetPoint" />
          </mxGeometry>
        </mxCell>
        <mxCell id="zOwiAkLwuJnWZPbeNpUU-28" value="" style="group" vertex="1" connectable="0" parent="1">
          <mxGeometry x="300" y="260" width="150" height="170" as="geometry" />
        </mxCell>
        <mxCell id="zOwiAkLwuJnWZPbeNpUU-29" value="" style="rounded=0;whiteSpace=wrap;html=1;" vertex="1" parent="zOwiAkLwuJnWZPbeNpUU-28">
          <mxGeometry width="138.46153846153845" height="168.59504132231405" as="geometry" />
        </mxCell>
        <mxCell id="zOwiAkLwuJnWZPbeNpUU-30" value="OfferedQuizAnswers" style="text;html=1;align=center;verticalAlign=middle;resizable=0;points=[];autosize=1;strokeColor=none;fillColor=none;fontStyle=1" vertex="1" parent="zOwiAkLwuJnWZPbeNpUU-28">
          <mxGeometry x="0.0015384615384625988" width="140" height="30" as="geometry" />
        </mxCell>
        <mxCell id="zOwiAkLwuJnWZPbeNpUU-31" value="&lt;div&gt;a.&lt;/div&gt;&lt;div&gt;b.&lt;/div&gt;&lt;div&gt;c.&lt;/div&gt;&lt;div&gt;d.&lt;br&gt;&lt;/div&gt;&lt;div&gt;Right Answer&lt;br&gt;&lt;/div&gt;" style="text;html=1;align=left;verticalAlign=middle;resizable=0;points=[];autosize=1;strokeColor=none;fillColor=none;" vertex="1" parent="zOwiAkLwuJnWZPbeNpUU-28">
          <mxGeometry x="11.538461538461537" y="70.00346556473829" width="90" height="90" as="geometry" />
        </mxCell>
        <mxCell id="zOwiAkLwuJnWZPbeNpUU-32" value="&lt;div&gt;&lt;br&gt;&lt;/div&gt;&lt;div&gt;FK(Teacher)&lt;br&gt;&lt;/div&gt;&lt;div&gt;FK(InputQuizType)&lt;br&gt;&lt;/div&gt;&lt;div&gt;MK(OfferedAnswer)&lt;br&gt;&lt;/div&gt;" style="text;html=1;align=left;verticalAlign=middle;resizable=0;points=[];autosize=1;strokeColor=none;fillColor=none;" vertex="1" parent="zOwiAkLwuJnWZPbeNpUU-28">
          <mxGeometry x="8.463076923076926" y="14.996666666666663" width="130" height="70" as="geometry" />
        </mxCell>
        <mxCell id="zOwiAkLwuJnWZPbeNpUU-33" value="" style="edgeStyle=entityRelationEdgeStyle;fontSize=12;html=1;endArrow=ERzeroToMany;startArrow=ERzeroToOne;rounded=0;entryX=0.003;entryY=0.708;entryDx=0;entryDy=0;exitX=1.017;exitY=0.356;exitDx=0;exitDy=0;exitPerimeter=0;entryPerimeter=0;" edge="1" parent="1" source="zOwiAkLwuJnWZPbeNpUU-29" target="zOwiAkLwuJnWZPbeNpUU-4">
          <mxGeometry width="100" height="100" relative="1" as="geometry">
            <mxPoint x="408.0050000000001" y="353.0099855699855" as="sourcePoint" />
            <mxPoint x="505.5" y="287.9" as="targetPoint" />
          </mxGeometry>
        </mxCell>
        <mxCell id="zOwiAkLwuJnWZPbeNpUU-34" value="" style="edgeStyle=entityRelationEdgeStyle;fontSize=12;html=1;endArrow=ERzeroToMany;startArrow=ERzeroToOne;rounded=0;entryX=0;entryY=0.5;entryDx=0;entryDy=0;exitX=1.031;exitY=0.9;exitDx=0;exitDy=0;exitPerimeter=0;" edge="1" parent="1" source="zOwiAkLwuJnWZPbeNpUU-21" target="zOwiAkLwuJnWZPbeNpUU-29">
          <mxGeometry width="100" height="100" relative="1" as="geometry">
            <mxPoint x="200" y="300" as="sourcePoint" />
            <mxPoint x="227" y="346.03" as="targetPoint" />
          </mxGeometry>
        </mxCell>
        <mxCell id="zOwiAkLwuJnWZPbeNpUU-35" value="" style="group" vertex="1" connectable="0" parent="1">
          <mxGeometry x="20" y="310" width="110" height="80" as="geometry" />
        </mxCell>
        <mxCell id="zOwiAkLwuJnWZPbeNpUU-36" value="" style="group" vertex="1" connectable="0" parent="zOwiAkLwuJnWZPbeNpUU-35">
          <mxGeometry x="20" y="10" width="110" height="79.33866666666665" as="geometry" />
        </mxCell>
        <mxCell id="zOwiAkLwuJnWZPbeNpUU-37" value="" style="rounded=0;whiteSpace=wrap;html=1;" vertex="1" parent="zOwiAkLwuJnWZPbeNpUU-36">
          <mxGeometry width="104.76190476190477" height="79.33866666666665" as="geometry" />
        </mxCell>
        <mxCell id="zOwiAkLwuJnWZPbeNpUU-38" value="&lt;div align=&quot;left&quot;&gt;OfferedAnswer&lt;/div&gt;" style="text;html=1;align=left;verticalAlign=middle;resizable=0;points=[];autosize=1;strokeColor=none;fillColor=none;fontStyle=1" vertex="1" parent="zOwiAkLwuJnWZPbeNpUU-36">
          <mxGeometry x="7.857142857142857" y="10" width="110" height="30" as="geometry" />
        </mxCell>
        <mxCell id="zOwiAkLwuJnWZPbeNpUU-39" value="&lt;div&gt;&lt;br&gt;&lt;/div&gt;&lt;div&gt;FK(Teacher)&lt;/div&gt;&lt;div&gt;a.xxx&lt;/div&gt;" style="text;html=1;align=left;verticalAlign=middle;resizable=0;points=[];autosize=1;strokeColor=none;fillColor=none;" vertex="1" parent="zOwiAkLwuJnWZPbeNpUU-36">
          <mxGeometry x="7.859761904761905" y="14.668297520661163" width="90" height="60" as="geometry" />
        </mxCell>
        <mxCell id="zOwiAkLwuJnWZPbeNpUU-40" value="" style="edgeStyle=entityRelationEdgeStyle;fontSize=12;html=1;endArrow=ERzeroToMany;endFill=1;startArrow=ERzeroToMany;rounded=0;entryX=0;entryY=0.75;entryDx=0;entryDy=0;exitX=1.028;exitY=0.429;exitDx=0;exitDy=0;exitPerimeter=0;" edge="1" parent="1" source="zOwiAkLwuJnWZPbeNpUU-37" target="zOwiAkLwuJnWZPbeNpUU-29">
          <mxGeometry width="100" height="100" relative="1" as="geometry">
            <mxPoint x="160" y="550" as="sourcePoint" />
            <mxPoint x="260" y="450" as="targetPoint" />
          </mxGeometry>
        </mxCell>
        <mxCell id="zOwiAkLwuJnWZPbeNpUU-41" value="Student" style="rounded=0;whiteSpace=wrap;html=1;fontStyle=1" vertex="1" parent="1">
          <mxGeometry x="330" y="460" width="80" height="60" as="geometry" />
        </mxCell>
        <mxCell id="zOwiAkLwuJnWZPbeNpUU-42" value="" style="edgeStyle=entityRelationEdgeStyle;fontSize=12;html=1;endArrow=ERzeroToMany;startArrow=ERzeroToOne;rounded=0;exitX=1;exitY=0.4;exitDx=0;exitDy=0;entryX=0.005;entryY=0.675;entryDx=0;entryDy=0;exitPerimeter=0;entryPerimeter=0;" edge="1" parent="1" source="zOwiAkLwuJnWZPbeNpUU-41" target="zOwiAkLwuJnWZPbeNpUU-9">
          <mxGeometry width="100" height="100" relative="1" as="geometry">
            <mxPoint x="740" y="250" as="sourcePoint" />
            <mxPoint x="680" y="440" as="targetPoint" />
          </mxGeometry>
        </mxCell>
        <mxCell id="byFegEmHWk51fzB0Tt7N-4" value="" style="edgeStyle=entityRelationEdgeStyle;fontSize=12;html=1;endArrow=ERzeroToMany;startArrow=ERzeroToOne;rounded=0;exitX=0;exitY=0.5;exitDx=0;exitDy=0;entryX=0;entryY=0;entryDx=0;entryDy=0;" edge="1" parent="1" source="zOwiAkLwuJnWZPbeNpUU-15" target="zOwiAkLwuJnWZPbeNpUU-37">
          <mxGeometry width="100" height="100" relative="1" as="geometry">
            <mxPoint x="220" y="70" as="sourcePoint" />
            <mxPoint x="60" y="380" as="targetPoint" />
          </mxGeometry>
        </mxCell>
        <mxCell id="byFegEmHWk51fzB0Tt7N-5" value="" style="edgeStyle=entityRelationEdgeStyle;fontSize=12;html=1;endArrow=ERzeroToMany;startArrow=ERzeroToOne;rounded=0;exitX=1;exitY=0.75;exitDx=0;exitDy=0;entryX=-0.014;entryY=0.308;entryDx=0;entryDy=0;entryPerimeter=0;" edge="1" parent="1" source="zOwiAkLwuJnWZPbeNpUU-15" target="zOwiAkLwuJnWZPbeNpUU-29">
          <mxGeometry width="100" height="100" relative="1" as="geometry">
            <mxPoint x="330" y="60" as="sourcePoint" />
            <mxPoint x="310" y="299" as="targetPoint" />
          </mxGeometry>
        </mxCell>
      </root>
    </mxGraphModel>
  </diagram>
  <diagram id="qMdx6vKtQfxviHhRJhP8" name="Version-3">
    <mxGraphModel dx="946" dy="617" grid="1" gridSize="10" guides="1" tooltips="1" connect="1" arrows="1" fold="1" page="1" pageScale="1" pageWidth="850" pageHeight="1100" math="0" shadow="0">
      <root>
        <mxCell id="0" />
        <mxCell id="1" parent="0" />
        <mxCell id="iC9t41uFvz-aqMV9a6fQ-1" value="" style="edgeStyle=entityRelationEdgeStyle;fontSize=12;html=1;endArrow=ERzeroToMany;startArrow=ERzeroToOne;rounded=0;exitX=0.4;exitY=-0.067;exitDx=0;exitDy=0;entryX=1;entryY=0.5;entryDx=0;entryDy=0;exitPerimeter=0;" parent="1" source="iC9t41uFvz-aqMV9a6fQ-15" target="iC9t41uFvz-aqMV9a6fQ-4" edge="1">
          <mxGeometry width="100" height="100" relative="1" as="geometry">
            <mxPoint x="700" y="110" as="sourcePoint" />
            <mxPoint x="660" y="280" as="targetPoint" />
          </mxGeometry>
        </mxCell>
        <mxCell id="iC9t41uFvz-aqMV9a6fQ-2" value="" style="edgeStyle=entityRelationEdgeStyle;fontSize=12;html=1;endArrow=ERzeroToMany;startArrow=ERzeroToOne;rounded=0;entryX=0;entryY=0.25;entryDx=0;entryDy=0;exitX=1;exitY=0.25;exitDx=0;exitDy=0;" parent="1" source="iC9t41uFvz-aqMV9a6fQ-14" target="iC9t41uFvz-aqMV9a6fQ-4" edge="1">
          <mxGeometry width="100" height="100" relative="1" as="geometry">
            <mxPoint x="320" y="50" as="sourcePoint" />
            <mxPoint x="440" y="240" as="targetPoint" />
          </mxGeometry>
        </mxCell>
        <mxCell id="iC9t41uFvz-aqMV9a6fQ-3" value="" style="group;" parent="1" vertex="1" connectable="0">
          <mxGeometry x="550" y="130" width="171.25" height="130" as="geometry" />
        </mxCell>
        <mxCell id="iC9t41uFvz-aqMV9a6fQ-4" value="" style="rounded=0;whiteSpace=wrap;html=1;fillColor=#FFFF99;" parent="iC9t41uFvz-aqMV9a6fQ-3" vertex="1">
          <mxGeometry width="170" height="130" as="geometry" />
        </mxCell>
        <mxCell id="iC9t41uFvz-aqMV9a6fQ-5" value="&lt;div&gt;FK(Teacher)&lt;/div&gt;&lt;div&gt;FK(CourseCategory)&lt;br&gt;&lt;/div&gt;&lt;div&gt;FK(InputType)&lt;/div&gt;&lt;div&gt;FK(OfferedQuizAnswer)&lt;/div&gt;" style="text;html=1;align=left;verticalAlign=middle;resizable=0;points=[];autosize=1;strokeColor=none;fillColor=none;" parent="iC9t41uFvz-aqMV9a6fQ-3" vertex="1">
          <mxGeometry x="17.08" y="24.546363636363637" width="150" height="70" as="geometry" />
        </mxCell>
        <mxCell id="iC9t41uFvz-aqMV9a6fQ-6" value="CourseCategoryQuiz" style="text;whiteSpace=wrap;html=1;fontStyle=1" parent="iC9t41uFvz-aqMV9a6fQ-3" vertex="1">
          <mxGeometry x="14.166666666666668" width="155.83333333333334" height="24.545454545454547" as="geometry" />
        </mxCell>
        <mxCell id="iC9t41uFvz-aqMV9a6fQ-7" value="Question-title" style="text;html=1;align=center;verticalAlign=middle;resizable=0;points=[];autosize=1;strokeColor=none;fillColor=none;" parent="iC9t41uFvz-aqMV9a6fQ-3" vertex="1">
          <mxGeometry x="17.08000000000004" y="94.55000000000001" width="90" height="30" as="geometry" />
        </mxCell>
        <mxCell id="iC9t41uFvz-aqMV9a6fQ-8" value="" style="group;fillColor=#FFE6CC;" parent="1" vertex="1" connectable="0">
          <mxGeometry x="520" y="350" width="185" height="90" as="geometry" />
        </mxCell>
        <mxCell id="iC9t41uFvz-aqMV9a6fQ-9" value="" style="rounded=0;whiteSpace=wrap;html=1;fillColor=#FFE6CC;" parent="iC9t41uFvz-aqMV9a6fQ-8" vertex="1">
          <mxGeometry width="185.00000000000003" height="90" as="geometry" />
        </mxCell>
        <mxCell id="iC9t41uFvz-aqMV9a6fQ-10" value="&lt;div&gt;FK(Student)&lt;/div&gt;&lt;div&gt;FK(CourseCategoryQuiz)&lt;br&gt;&lt;/div&gt;" style="text;html=1;align=left;verticalAlign=middle;resizable=0;points=[];autosize=1;strokeColor=none;fillColor=none;" parent="iC9t41uFvz-aqMV9a6fQ-8" vertex="1">
          <mxGeometry x="15.415000000000003" y="24.996363636363636" width="160" height="40" as="geometry" />
        </mxCell>
        <mxCell id="iC9t41uFvz-aqMV9a6fQ-11" value="StudentQuizSolution" style="text;whiteSpace=wrap;html=1;fontStyle=1" parent="iC9t41uFvz-aqMV9a6fQ-8" vertex="1">
          <mxGeometry x="15.416666666666666" width="169.58333333333334" height="24.545454545454543" as="geometry" />
        </mxCell>
        <mxCell id="iC9t41uFvz-aqMV9a6fQ-12" value="Student Answer" style="text;html=1;align=center;verticalAlign=middle;resizable=0;points=[];autosize=1;strokeColor=none;fillColor=none;" parent="iC9t41uFvz-aqMV9a6fQ-8" vertex="1">
          <mxGeometry x="10" y="60" width="110" height="30" as="geometry" />
        </mxCell>
        <mxCell id="iC9t41uFvz-aqMV9a6fQ-13" value="" style="endArrow=classic;html=1;rounded=0;exitX=0.5;exitY=1;exitDx=0;exitDy=0;entryX=0.455;entryY=0;entryDx=0;entryDy=0;entryPerimeter=0;" parent="1" source="iC9t41uFvz-aqMV9a6fQ-4" target="iC9t41uFvz-aqMV9a6fQ-11" edge="1">
          <mxGeometry width="50" height="50" relative="1" as="geometry">
            <mxPoint x="560" y="300" as="sourcePoint" />
            <mxPoint x="610" y="250" as="targetPoint" />
          </mxGeometry>
        </mxCell>
        <mxCell id="iC9t41uFvz-aqMV9a6fQ-14" value="Teacher" style="rounded=0;whiteSpace=wrap;html=1;fontStyle=1" parent="1" vertex="1">
          <mxGeometry x="110" y="30" width="120" height="60" as="geometry" />
        </mxCell>
        <mxCell id="iC9t41uFvz-aqMV9a6fQ-15" value="CourseCategory" style="rounded=0;whiteSpace=wrap;html=1;fontStyle=1" parent="1" vertex="1">
          <mxGeometry x="730" y="550" width="100" height="60" as="geometry" />
        </mxCell>
        <mxCell id="iC9t41uFvz-aqMV9a6fQ-16" value="" style="group" parent="1" vertex="1" connectable="0">
          <mxGeometry x="90" y="130" width="100" height="90" as="geometry" />
        </mxCell>
        <mxCell id="iC9t41uFvz-aqMV9a6fQ-17" value="" style="rounded=0;whiteSpace=wrap;html=1;" parent="iC9t41uFvz-aqMV9a6fQ-16" vertex="1">
          <mxGeometry width="90" height="90" as="geometry" />
        </mxCell>
        <mxCell id="iC9t41uFvz-aqMV9a6fQ-18" value="InputQuizType" style="text;html=1;align=center;verticalAlign=middle;resizable=0;points=[];autosize=1;strokeColor=none;fillColor=none;fontStyle=1" parent="iC9t41uFvz-aqMV9a6fQ-16" vertex="1">
          <mxGeometry x="-9.999999999999996" width="110" height="30" as="geometry" />
        </mxCell>
        <mxCell id="iC9t41uFvz-aqMV9a6fQ-19" value="&lt;div&gt;Text&lt;/div&gt;&lt;div&gt;Select&lt;/div&gt;&lt;div&gt;Multi-select&lt;br&gt;&lt;/div&gt;" style="text;html=1;align=left;verticalAlign=middle;resizable=0;points=[];autosize=1;strokeColor=none;fillColor=none;" parent="iC9t41uFvz-aqMV9a6fQ-16" vertex="1">
          <mxGeometry x="7.496250000000005" y="19.995844155844107" width="80" height="60" as="geometry" />
        </mxCell>
        <mxCell id="iC9t41uFvz-aqMV9a6fQ-20" value="" style="edgeStyle=entityRelationEdgeStyle;fontSize=12;html=1;endArrow=ERzeroToMany;startArrow=ERzeroToOne;rounded=0;exitX=1.025;exitY=0.433;exitDx=0;exitDy=0;exitPerimeter=0;entryX=0.009;entryY=0.438;entryDx=0;entryDy=0;entryPerimeter=0;" parent="1" source="iC9t41uFvz-aqMV9a6fQ-17" target="iC9t41uFvz-aqMV9a6fQ-4" edge="1">
          <mxGeometry width="100" height="100" relative="1" as="geometry">
            <mxPoint x="180" y="202.47000000000003" as="sourcePoint" />
            <mxPoint x="420" y="200" as="targetPoint" />
          </mxGeometry>
        </mxCell>
        <mxCell id="iC9t41uFvz-aqMV9a6fQ-21" value="" style="group" parent="1" vertex="1" connectable="0">
          <mxGeometry x="290" y="240" width="150" height="170" as="geometry" />
        </mxCell>
        <mxCell id="iC9t41uFvz-aqMV9a6fQ-22" value="" style="rounded=0;whiteSpace=wrap;html=1;" parent="iC9t41uFvz-aqMV9a6fQ-21" vertex="1">
          <mxGeometry width="138.46153846153845" height="168.59504132231405" as="geometry" />
        </mxCell>
        <mxCell id="iC9t41uFvz-aqMV9a6fQ-23" value="OfferedQuizAnswers" style="text;html=1;align=center;verticalAlign=middle;resizable=0;points=[];autosize=1;strokeColor=none;fillColor=none;fontStyle=1" parent="iC9t41uFvz-aqMV9a6fQ-21" vertex="1">
          <mxGeometry x="0.0015384615384625988" width="140" height="30" as="geometry" />
        </mxCell>
        <mxCell id="iC9t41uFvz-aqMV9a6fQ-24" value="&lt;div&gt;a.&lt;/div&gt;&lt;div&gt;b.&lt;/div&gt;&lt;div&gt;c.&lt;/div&gt;&lt;div&gt;d.&lt;br&gt;&lt;/div&gt;&lt;div&gt;Right Answer&lt;br&gt;&lt;/div&gt;" style="text;html=1;align=left;verticalAlign=middle;resizable=0;points=[];autosize=1;strokeColor=none;fillColor=none;" parent="iC9t41uFvz-aqMV9a6fQ-21" vertex="1">
          <mxGeometry x="9.998461538461537" y="78.5934655647383" width="90" height="90" as="geometry" />
        </mxCell>
        <mxCell id="iC9t41uFvz-aqMV9a6fQ-25" value="&lt;div&gt;&lt;br&gt;&lt;/div&gt;&lt;div&gt;FK(Teacher)&lt;br&gt;&lt;/div&gt;&lt;div&gt;FK(InputQuizType)&lt;br&gt;&lt;/div&gt;&lt;div&gt;MK(OfferedAnswer)&lt;br&gt;&lt;/div&gt;&lt;div&gt;FK(CourseCategory)&lt;br&gt;&lt;/div&gt;&lt;div&gt;&lt;br&gt;&lt;/div&gt;" style="text;html=1;align=left;verticalAlign=middle;resizable=0;points=[];autosize=1;strokeColor=none;fillColor=none;" parent="iC9t41uFvz-aqMV9a6fQ-21" vertex="1">
          <mxGeometry x="10.003076923076925" y="9.996666666666663" width="130" height="100" as="geometry" />
        </mxCell>
        <mxCell id="iC9t41uFvz-aqMV9a6fQ-26" value="" style="edgeStyle=entityRelationEdgeStyle;fontSize=12;html=1;endArrow=ERzeroToMany;startArrow=ERzeroToOne;rounded=0;entryX=0.003;entryY=0.708;entryDx=0;entryDy=0;exitX=1.017;exitY=0.356;exitDx=0;exitDy=0;exitPerimeter=0;entryPerimeter=0;" parent="1" source="iC9t41uFvz-aqMV9a6fQ-22" target="iC9t41uFvz-aqMV9a6fQ-4" edge="1">
          <mxGeometry width="100" height="100" relative="1" as="geometry">
            <mxPoint x="408.0050000000001" y="353.0099855699855" as="sourcePoint" />
            <mxPoint x="505.5" y="287.9" as="targetPoint" />
          </mxGeometry>
        </mxCell>
        <mxCell id="iC9t41uFvz-aqMV9a6fQ-27" value="" style="edgeStyle=entityRelationEdgeStyle;fontSize=12;html=1;endArrow=ERzeroToMany;startArrow=ERzeroToOne;rounded=0;entryX=0;entryY=0.5;entryDx=0;entryDy=0;exitX=1.031;exitY=0.9;exitDx=0;exitDy=0;exitPerimeter=0;" parent="1" source="iC9t41uFvz-aqMV9a6fQ-19" target="iC9t41uFvz-aqMV9a6fQ-22" edge="1">
          <mxGeometry width="100" height="100" relative="1" as="geometry">
            <mxPoint x="200" y="300" as="sourcePoint" />
            <mxPoint x="227" y="346.03" as="targetPoint" />
          </mxGeometry>
        </mxCell>
        <mxCell id="iC9t41uFvz-aqMV9a6fQ-28" value="" style="group" parent="1" vertex="1" connectable="0">
          <mxGeometry x="19.64" y="290" width="200.36" height="140" as="geometry" />
        </mxCell>
        <mxCell id="iC9t41uFvz-aqMV9a6fQ-29" value="" style="group" parent="iC9t41uFvz-aqMV9a6fQ-28" vertex="1" connectable="0">
          <mxGeometry x="25.384556213999467" y="12.727272727272727" width="174.97544378600054" height="127.27272727272727" as="geometry" />
        </mxCell>
        <mxCell id="iC9t41uFvz-aqMV9a6fQ-30" value="" style="rounded=0;whiteSpace=wrap;html=1;" parent="iC9t41uFvz-aqMV9a6fQ-29" vertex="1">
          <mxGeometry width="132.9667230257115" height="127.2727272727273" as="geometry" />
        </mxCell>
        <mxCell id="iC9t41uFvz-aqMV9a6fQ-31" value="&lt;div align=&quot;left&quot;&gt;OfferedAnswer&lt;/div&gt;" style="text;html=1;align=left;verticalAlign=middle;resizable=0;points=[];autosize=1;strokeColor=none;fillColor=none;fontStyle=1" parent="iC9t41uFvz-aqMV9a6fQ-29" vertex="1">
          <mxGeometry x="9.972504226928361" y="16.041702314894035" width="110" height="30" as="geometry" />
        </mxCell>
        <mxCell id="iC9t41uFvz-aqMV9a6fQ-32" value="&lt;div&gt;&lt;br&gt;&lt;/div&gt;&lt;div&gt;FK(Teacher)&lt;/div&gt;&lt;div&gt;FK(CourseCategory)&lt;br&gt;&lt;/div&gt;&lt;div&gt;a.xxx&lt;/div&gt;&lt;div&gt;&lt;br&gt;&lt;/div&gt;&lt;div&gt;&lt;br&gt;&lt;/div&gt;" style="text;html=1;align=left;verticalAlign=middle;resizable=0;points=[];autosize=1;strokeColor=none;fillColor=none;" parent="iC9t41uFvz-aqMV9a6fQ-29" vertex="1">
          <mxGeometry x="9.975828395004005" y="25.452264411092646" width="130" height="100" as="geometry" />
        </mxCell>
        <mxCell id="iC9t41uFvz-aqMV9a6fQ-33" value="" style="edgeStyle=entityRelationEdgeStyle;fontSize=12;html=1;endArrow=ERzeroToMany;endFill=1;startArrow=ERzeroToMany;rounded=0;entryX=0;entryY=0.75;entryDx=0;entryDy=0;exitX=1.028;exitY=0.429;exitDx=0;exitDy=0;exitPerimeter=0;" parent="1" source="iC9t41uFvz-aqMV9a6fQ-30" target="iC9t41uFvz-aqMV9a6fQ-22" edge="1">
          <mxGeometry width="100" height="100" relative="1" as="geometry">
            <mxPoint x="160" y="550" as="sourcePoint" />
            <mxPoint x="260" y="450" as="targetPoint" />
          </mxGeometry>
        </mxCell>
        <mxCell id="iC9t41uFvz-aqMV9a6fQ-34" value="Student" style="rounded=0;whiteSpace=wrap;html=1;fontStyle=1" parent="1" vertex="1">
          <mxGeometry x="310" y="500" width="80" height="60" as="geometry" />
        </mxCell>
        <mxCell id="iC9t41uFvz-aqMV9a6fQ-35" value="" style="edgeStyle=entityRelationEdgeStyle;fontSize=12;html=1;endArrow=ERzeroToMany;startArrow=ERzeroToOne;rounded=0;exitX=1;exitY=0.4;exitDx=0;exitDy=0;entryX=0.005;entryY=0.675;entryDx=0;entryDy=0;exitPerimeter=0;entryPerimeter=0;" parent="1" source="iC9t41uFvz-aqMV9a6fQ-34" target="iC9t41uFvz-aqMV9a6fQ-9" edge="1">
          <mxGeometry width="100" height="100" relative="1" as="geometry">
            <mxPoint x="740" y="250" as="sourcePoint" />
            <mxPoint x="680" y="440" as="targetPoint" />
          </mxGeometry>
        </mxCell>
        <mxCell id="iC9t41uFvz-aqMV9a6fQ-36" value="" style="edgeStyle=entityRelationEdgeStyle;fontSize=12;html=1;endArrow=ERzeroToMany;startArrow=ERzeroToOne;rounded=0;exitX=0;exitY=0.5;exitDx=0;exitDy=0;entryX=0;entryY=0;entryDx=0;entryDy=0;" parent="1" source="iC9t41uFvz-aqMV9a6fQ-14" target="iC9t41uFvz-aqMV9a6fQ-30" edge="1">
          <mxGeometry width="100" height="100" relative="1" as="geometry">
            <mxPoint x="220" y="70" as="sourcePoint" />
            <mxPoint x="60" y="380" as="targetPoint" />
          </mxGeometry>
        </mxCell>
        <mxCell id="iC9t41uFvz-aqMV9a6fQ-37" value="" style="edgeStyle=entityRelationEdgeStyle;fontSize=12;html=1;endArrow=ERzeroToMany;startArrow=ERzeroToOne;rounded=0;exitX=1;exitY=0.75;exitDx=0;exitDy=0;entryX=-0.014;entryY=0.308;entryDx=0;entryDy=0;entryPerimeter=0;" parent="1" source="iC9t41uFvz-aqMV9a6fQ-14" target="iC9t41uFvz-aqMV9a6fQ-22" edge="1">
          <mxGeometry width="100" height="100" relative="1" as="geometry">
            <mxPoint x="330" y="60" as="sourcePoint" />
            <mxPoint x="310" y="299" as="targetPoint" />
          </mxGeometry>
        </mxCell>
        <mxCell id="lxgZwt2qKqmUW_LqDyGe-1" value="" style="edgeStyle=entityRelationEdgeStyle;fontSize=12;html=1;endArrow=ERzeroToMany;startArrow=ERzeroToOne;rounded=0;exitX=0;exitY=1;exitDx=0;exitDy=0;entryX=1.04;entryY=0.857;entryDx=0;entryDy=0;entryPerimeter=0;" parent="1" source="iC9t41uFvz-aqMV9a6fQ-15" target="iC9t41uFvz-aqMV9a6fQ-30" edge="1">
          <mxGeometry width="100" height="100" relative="1" as="geometry">
            <mxPoint x="590" y="610" as="sourcePoint" />
            <mxPoint x="80" y="400" as="targetPoint" />
          </mxGeometry>
        </mxCell>
        <mxCell id="lxgZwt2qKqmUW_LqDyGe-5" value="" style="edgeStyle=entityRelationEdgeStyle;fontSize=12;html=1;endArrow=ERzeroToMany;startArrow=ERzeroToOne;rounded=0;exitX=0;exitY=0.25;exitDx=0;exitDy=0;entryX=1;entryY=1;entryDx=0;entryDy=0;" parent="1" source="iC9t41uFvz-aqMV9a6fQ-15" target="iC9t41uFvz-aqMV9a6fQ-22" edge="1">
          <mxGeometry width="100" height="100" relative="1" as="geometry">
            <mxPoint x="740" y="620" as="sourcePoint" />
            <mxPoint x="420" y="380" as="targetPoint" />
          </mxGeometry>
        </mxCell>
      </root>
    </mxGraphModel>
  </diagram>
  <diagram id="uDkdlZIJB3lfUVvHl7jG" name="version-4">
    <mxGraphModel dx="1113" dy="726" grid="1" gridSize="10" guides="1" tooltips="1" connect="1" arrows="1" fold="1" page="1" pageScale="1" pageWidth="1169" pageHeight="1654" math="0" shadow="0">
      <root>
        <mxCell id="0" />
        <mxCell id="1" parent="0" />
        <mxCell id="-u2DhF2AYnjjPQLDKzHC-1" value="" style="edgeStyle=entityRelationEdgeStyle;fontSize=12;html=1;endArrow=ERzeroToMany;startArrow=ERzeroToOne;rounded=0;exitX=0.4;exitY=-0.067;exitDx=0;exitDy=0;entryX=1;entryY=0.5;entryDx=0;entryDy=0;exitPerimeter=0;" edge="1" parent="1" source="-u2DhF2AYnjjPQLDKzHC-15" target="-u2DhF2AYnjjPQLDKzHC-4">
          <mxGeometry width="100" height="100" relative="1" as="geometry">
            <mxPoint x="700" y="110" as="sourcePoint" />
            <mxPoint x="660" y="280" as="targetPoint" />
          </mxGeometry>
        </mxCell>
        <mxCell id="-u2DhF2AYnjjPQLDKzHC-2" value="" style="edgeStyle=entityRelationEdgeStyle;fontSize=12;html=1;endArrow=ERzeroToMany;startArrow=ERzeroToOne;rounded=0;entryX=0;entryY=0.25;entryDx=0;entryDy=0;exitX=1;exitY=0.75;exitDx=0;exitDy=0;" edge="1" parent="1" source="-u2DhF2AYnjjPQLDKzHC-14" target="-u2DhF2AYnjjPQLDKzHC-4">
          <mxGeometry width="100" height="100" relative="1" as="geometry">
            <mxPoint x="320" y="50" as="sourcePoint" />
            <mxPoint x="440" y="240" as="targetPoint" />
          </mxGeometry>
        </mxCell>
        <mxCell id="-u2DhF2AYnjjPQLDKzHC-3" value="" style="group;" vertex="1" connectable="0" parent="1">
          <mxGeometry x="430" y="200" width="171.25" height="130" as="geometry" />
        </mxCell>
        <mxCell id="-u2DhF2AYnjjPQLDKzHC-4" value="" style="rounded=0;whiteSpace=wrap;html=1;fillColor=#FFFF99;" vertex="1" parent="-u2DhF2AYnjjPQLDKzHC-3">
          <mxGeometry width="170" height="130" as="geometry" />
        </mxCell>
        <mxCell id="-u2DhF2AYnjjPQLDKzHC-5" value="&lt;div&gt;FK(Teacher)&lt;/div&gt;&lt;div&gt;FK(CourseCategory)&lt;br&gt;&lt;/div&gt;&lt;div&gt;FK(InputType)&lt;/div&gt;&lt;div&gt;MK(OfferedAnswer)&lt;/div&gt;" style="text;html=1;align=left;verticalAlign=middle;resizable=0;points=[];autosize=1;strokeColor=none;fillColor=none;" vertex="1" parent="-u2DhF2AYnjjPQLDKzHC-3">
          <mxGeometry x="17.08" y="24.546363636363637" width="130" height="70" as="geometry" />
        </mxCell>
        <mxCell id="-u2DhF2AYnjjPQLDKzHC-6" value="CourseCategoryQuiz" style="text;whiteSpace=wrap;html=1;fontStyle=1" vertex="1" parent="-u2DhF2AYnjjPQLDKzHC-3">
          <mxGeometry x="14.166666666666668" width="155.83333333333334" height="24.545454545454547" as="geometry" />
        </mxCell>
        <mxCell id="-u2DhF2AYnjjPQLDKzHC-7" value="&lt;div&gt;Question-title&lt;/div&gt;Right Answer" style="text;html=1;align=center;verticalAlign=middle;resizable=0;points=[];autosize=1;strokeColor=none;fillColor=none;" vertex="1" parent="-u2DhF2AYnjjPQLDKzHC-3">
          <mxGeometry x="17.08000000000004" y="89.55000000000001" width="90" height="40" as="geometry" />
        </mxCell>
        <mxCell id="-u2DhF2AYnjjPQLDKzHC-8" value="" style="group;fillColor=#FFE6CC;" vertex="1" connectable="0" parent="1">
          <mxGeometry x="400" y="380" width="185" height="110" as="geometry" />
        </mxCell>
        <mxCell id="-u2DhF2AYnjjPQLDKzHC-9" value="" style="rounded=0;whiteSpace=wrap;html=1;fillColor=#FFE6CC;" vertex="1" parent="-u2DhF2AYnjjPQLDKzHC-8">
          <mxGeometry width="185.00000000000003" height="110.00000000000001" as="geometry" />
        </mxCell>
        <mxCell id="-u2DhF2AYnjjPQLDKzHC-10" value="&lt;div&gt;FK(Student)&lt;/div&gt;&lt;div&gt;FK(CourseCategoryQuiz)&lt;br&gt;&lt;/div&gt;" style="text;html=1;align=left;verticalAlign=middle;resizable=0;points=[];autosize=1;strokeColor=none;fillColor=none;" vertex="1" parent="-u2DhF2AYnjjPQLDKzHC-8">
          <mxGeometry x="15.415000000000003" y="30.551111111111112" width="160" height="40" as="geometry" />
        </mxCell>
        <mxCell id="-u2DhF2AYnjjPQLDKzHC-11" value="StudentQuizSolution" style="text;whiteSpace=wrap;html=1;fontStyle=1" vertex="1" parent="-u2DhF2AYnjjPQLDKzHC-8">
          <mxGeometry x="15.416666666666666" width="169.58333333333334" height="30" as="geometry" />
        </mxCell>
        <mxCell id="-u2DhF2AYnjjPQLDKzHC-12" value="&lt;div&gt;Student Answer&lt;/div&gt;&lt;div align=&quot;left&quot;&gt;Score&lt;br&gt;&lt;/div&gt;" style="text;html=1;align=center;verticalAlign=middle;resizable=0;points=[];autosize=1;strokeColor=none;fillColor=none;" vertex="1" parent="-u2DhF2AYnjjPQLDKzHC-8">
          <mxGeometry x="10" y="68.33333333333334" width="110" height="40" as="geometry" />
        </mxCell>
        <mxCell id="-u2DhF2AYnjjPQLDKzHC-13" value="" style="endArrow=classic;html=1;rounded=0;exitX=0.5;exitY=1;exitDx=0;exitDy=0;entryX=0.455;entryY=0;entryDx=0;entryDy=0;entryPerimeter=0;" edge="1" parent="1" source="-u2DhF2AYnjjPQLDKzHC-4" target="-u2DhF2AYnjjPQLDKzHC-11">
          <mxGeometry width="50" height="50" relative="1" as="geometry">
            <mxPoint x="560" y="300" as="sourcePoint" />
            <mxPoint x="610" y="250" as="targetPoint" />
          </mxGeometry>
        </mxCell>
        <mxCell id="-u2DhF2AYnjjPQLDKzHC-14" value="Teacher" style="rounded=0;whiteSpace=wrap;html=1;fontStyle=1" vertex="1" parent="1">
          <mxGeometry x="210" y="20" width="120" height="60" as="geometry" />
        </mxCell>
        <mxCell id="-u2DhF2AYnjjPQLDKzHC-15" value="CourseCategory" style="rounded=0;whiteSpace=wrap;html=1;fontStyle=1" vertex="1" parent="1">
          <mxGeometry x="640" y="560" width="100" height="60" as="geometry" />
        </mxCell>
        <mxCell id="-u2DhF2AYnjjPQLDKzHC-16" value="" style="group" vertex="1" connectable="0" parent="1">
          <mxGeometry x="250" y="140" width="100" height="90" as="geometry" />
        </mxCell>
        <mxCell id="-u2DhF2AYnjjPQLDKzHC-17" value="" style="rounded=0;whiteSpace=wrap;html=1;" vertex="1" parent="-u2DhF2AYnjjPQLDKzHC-16">
          <mxGeometry width="90" height="90" as="geometry" />
        </mxCell>
        <mxCell id="-u2DhF2AYnjjPQLDKzHC-18" value="InputQuizType" style="text;html=1;align=center;verticalAlign=middle;resizable=0;points=[];autosize=1;strokeColor=none;fillColor=none;fontStyle=1" vertex="1" parent="-u2DhF2AYnjjPQLDKzHC-16">
          <mxGeometry x="-9.999999999999996" width="110" height="30" as="geometry" />
        </mxCell>
        <mxCell id="-u2DhF2AYnjjPQLDKzHC-19" value="&lt;div&gt;Text&lt;/div&gt;&lt;div&gt;Select&lt;/div&gt;&lt;div&gt;Multi-select&lt;br&gt;&lt;/div&gt;" style="text;html=1;align=left;verticalAlign=middle;resizable=0;points=[];autosize=1;strokeColor=none;fillColor=none;" vertex="1" parent="-u2DhF2AYnjjPQLDKzHC-16">
          <mxGeometry x="7.496250000000005" y="19.995844155844107" width="80" height="60" as="geometry" />
        </mxCell>
        <mxCell id="-u2DhF2AYnjjPQLDKzHC-20" value="" style="edgeStyle=entityRelationEdgeStyle;fontSize=12;html=1;endArrow=ERzeroToMany;startArrow=ERzeroToOne;rounded=0;exitX=1.025;exitY=0.433;exitDx=0;exitDy=0;exitPerimeter=0;entryX=0.009;entryY=0.438;entryDx=0;entryDy=0;entryPerimeter=0;" edge="1" parent="1" source="-u2DhF2AYnjjPQLDKzHC-17" target="-u2DhF2AYnjjPQLDKzHC-4">
          <mxGeometry width="100" height="100" relative="1" as="geometry">
            <mxPoint x="180" y="202.47000000000003" as="sourcePoint" />
            <mxPoint x="420" y="200" as="targetPoint" />
          </mxGeometry>
        </mxCell>
        <mxCell id="-u2DhF2AYnjjPQLDKzHC-28" value="" style="group" vertex="1" connectable="0" parent="1">
          <mxGeometry x="80" y="280" width="200.36" height="140" as="geometry" />
        </mxCell>
        <mxCell id="-u2DhF2AYnjjPQLDKzHC-29" value="" style="group" vertex="1" connectable="0" parent="-u2DhF2AYnjjPQLDKzHC-28">
          <mxGeometry x="25.384556213999467" y="12.727272727272727" width="174.97544378600054" height="127.27272727272727" as="geometry" />
        </mxCell>
        <mxCell id="-u2DhF2AYnjjPQLDKzHC-30" value="" style="rounded=0;whiteSpace=wrap;html=1;" vertex="1" parent="-u2DhF2AYnjjPQLDKzHC-29">
          <mxGeometry width="132.9667230257115" height="127.2727272727273" as="geometry" />
        </mxCell>
        <mxCell id="-u2DhF2AYnjjPQLDKzHC-31" value="&lt;div align=&quot;left&quot;&gt;OfferedAnswer&lt;/div&gt;" style="text;html=1;align=left;verticalAlign=middle;resizable=0;points=[];autosize=1;strokeColor=none;fillColor=none;fontStyle=1" vertex="1" parent="-u2DhF2AYnjjPQLDKzHC-29">
          <mxGeometry x="9.972504226928361" y="16.041702314894035" width="110" height="30" as="geometry" />
        </mxCell>
        <mxCell id="-u2DhF2AYnjjPQLDKzHC-32" value="&lt;div&gt;&lt;br&gt;&lt;/div&gt;&lt;div&gt;FK(Teacher)&lt;/div&gt;&lt;div&gt;FK(CourseCategory)&lt;br&gt;&lt;/div&gt;&lt;div&gt;a.xxx&lt;/div&gt;&lt;div&gt;&lt;br&gt;&lt;/div&gt;&lt;div&gt;&lt;br&gt;&lt;/div&gt;" style="text;html=1;align=left;verticalAlign=middle;resizable=0;points=[];autosize=1;strokeColor=none;fillColor=none;" vertex="1" parent="-u2DhF2AYnjjPQLDKzHC-29">
          <mxGeometry x="9.975828395004005" y="25.452264411092646" width="130" height="100" as="geometry" />
        </mxCell>
        <mxCell id="-u2DhF2AYnjjPQLDKzHC-33" value="" style="edgeStyle=entityRelationEdgeStyle;fontSize=12;html=1;endArrow=ERzeroToMany;endFill=1;startArrow=ERzeroToMany;rounded=0;entryX=0;entryY=0.75;entryDx=0;entryDy=0;exitX=1.028;exitY=0.429;exitDx=0;exitDy=0;exitPerimeter=0;strokeWidth=3;" edge="1" parent="1" source="-u2DhF2AYnjjPQLDKzHC-30" target="-u2DhF2AYnjjPQLDKzHC-4">
          <mxGeometry width="100" height="100" relative="1" as="geometry">
            <mxPoint x="160" y="550" as="sourcePoint" />
            <mxPoint x="290" y="366.44628099173553" as="targetPoint" />
          </mxGeometry>
        </mxCell>
        <mxCell id="-u2DhF2AYnjjPQLDKzHC-34" value="Student" style="rounded=0;whiteSpace=wrap;html=1;fontStyle=1" vertex="1" parent="1">
          <mxGeometry x="650" y="180" width="80" height="100" as="geometry" />
        </mxCell>
        <mxCell id="-u2DhF2AYnjjPQLDKzHC-35" value="" style="edgeStyle=entityRelationEdgeStyle;fontSize=12;html=1;endArrow=ERzeroToMany;startArrow=ERzeroToOne;rounded=0;exitX=0;exitY=0.75;exitDx=0;exitDy=0;entryX=1;entryY=0.5;entryDx=0;entryDy=0;" edge="1" parent="1" source="-u2DhF2AYnjjPQLDKzHC-34" target="-u2DhF2AYnjjPQLDKzHC-9">
          <mxGeometry width="100" height="100" relative="1" as="geometry">
            <mxPoint x="740" y="250" as="sourcePoint" />
            <mxPoint x="680" y="440" as="targetPoint" />
          </mxGeometry>
        </mxCell>
        <mxCell id="-u2DhF2AYnjjPQLDKzHC-36" value="" style="edgeStyle=entityRelationEdgeStyle;fontSize=12;html=1;endArrow=ERzeroToMany;startArrow=ERzeroToOne;rounded=0;exitX=0;exitY=0.5;exitDx=0;exitDy=0;entryX=0;entryY=0;entryDx=0;entryDy=0;" edge="1" parent="1" source="-u2DhF2AYnjjPQLDKzHC-14" target="-u2DhF2AYnjjPQLDKzHC-30">
          <mxGeometry width="100" height="100" relative="1" as="geometry">
            <mxPoint x="220" y="70" as="sourcePoint" />
            <mxPoint x="60" y="380" as="targetPoint" />
          </mxGeometry>
        </mxCell>
        <mxCell id="-u2DhF2AYnjjPQLDKzHC-38" value="" style="edgeStyle=entityRelationEdgeStyle;fontSize=12;html=1;endArrow=ERzeroToMany;startArrow=ERzeroToOne;rounded=0;exitX=0;exitY=1;exitDx=0;exitDy=0;entryX=1.04;entryY=0.857;entryDx=0;entryDy=0;entryPerimeter=0;" edge="1" parent="1" source="-u2DhF2AYnjjPQLDKzHC-15" target="-u2DhF2AYnjjPQLDKzHC-30">
          <mxGeometry width="100" height="100" relative="1" as="geometry">
            <mxPoint x="590" y="610" as="sourcePoint" />
            <mxPoint x="80" y="400" as="targetPoint" />
          </mxGeometry>
        </mxCell>
        <mxCell id="ss860jDBtRXs5o9BqdNW-3" value="" style="group" vertex="1" connectable="0" parent="1">
          <mxGeometry x="510" y="80" width="90" height="60" as="geometry" />
        </mxCell>
        <mxCell id="ss860jDBtRXs5o9BqdNW-1" value="" style="rounded=0;whiteSpace=wrap;html=1;" vertex="1" parent="ss860jDBtRXs5o9BqdNW-3">
          <mxGeometry width="90" height="60" as="geometry" />
        </mxCell>
        <mxCell id="ss860jDBtRXs5o9BqdNW-2" value="Team" style="text;html=1;align=center;verticalAlign=middle;resizable=0;points=[];autosize=1;strokeColor=none;fillColor=none;fontStyle=1;container=1;" vertex="1" parent="ss860jDBtRXs5o9BqdNW-3">
          <mxGeometry x="20" width="50" height="30" as="geometry" />
        </mxCell>
        <mxCell id="ss860jDBtRXs5o9BqdNW-8" value="name" style="text;html=1;align=center;verticalAlign=middle;resizable=0;points=[];autosize=1;strokeColor=none;fillColor=none;" vertex="1" parent="ss860jDBtRXs5o9BqdNW-3">
          <mxGeometry x="20" y="20" width="50" height="30" as="geometry" />
        </mxCell>
        <mxCell id="ss860jDBtRXs5o9BqdNW-4" value="" style="group" vertex="1" connectable="0" parent="1">
          <mxGeometry x="760" y="50" width="110" height="80" as="geometry" />
        </mxCell>
        <mxCell id="ss860jDBtRXs5o9BqdNW-5" value="" style="rounded=0;whiteSpace=wrap;html=1;" vertex="1" parent="ss860jDBtRXs5o9BqdNW-4">
          <mxGeometry width="110.00000000000001" height="80" as="geometry" />
        </mxCell>
        <mxCell id="ss860jDBtRXs5o9BqdNW-6" value="Class" style="text;html=1;align=center;verticalAlign=middle;resizable=0;points=[];autosize=1;strokeColor=none;fillColor=none;fontStyle=1;container=1;" vertex="1" parent="ss860jDBtRXs5o9BqdNW-4">
          <mxGeometry x="19.444444444444446" width="60" height="30" as="geometry" />
        </mxCell>
        <mxCell id="ss860jDBtRXs5o9BqdNW-7" value="&lt;div&gt;MK(Student)&lt;/div&gt;&lt;div&gt;MK(Teacher)&lt;/div&gt;&lt;div&gt;FK(Team)&lt;br&gt;&lt;/div&gt;" style="text;html=1;align=left;verticalAlign=middle;resizable=0;points=[];autosize=1;strokeColor=none;fillColor=none;" vertex="1" parent="ss860jDBtRXs5o9BqdNW-4">
          <mxGeometry x="10.000000000000002" y="20.001777777777775" width="90" height="60" as="geometry" />
        </mxCell>
        <mxCell id="ss860jDBtRXs5o9BqdNW-9" value="" style="edgeStyle=entityRelationEdgeStyle;fontSize=12;html=1;endArrow=ERzeroToMany;endFill=1;startArrow=ERzeroToMany;rounded=0;entryX=0;entryY=0.5;entryDx=0;entryDy=0;exitX=1;exitY=0.25;exitDx=0;exitDy=0;strokeWidth=3;" edge="1" parent="1" source="-u2DhF2AYnjjPQLDKzHC-34" target="ss860jDBtRXs5o9BqdNW-5">
          <mxGeometry width="100" height="100" relative="1" as="geometry">
            <mxPoint x="660.0043474844308" y="179.82727272727277" as="sourcePoint" />
            <mxPoint x="847.9300000000003" y="50" as="targetPoint" />
          </mxGeometry>
        </mxCell>
        <mxCell id="ss860jDBtRXs5o9BqdNW-15" value="" style="edgeStyle=entityRelationEdgeStyle;fontSize=12;html=1;endArrow=ERzeroToMany;endFill=1;startArrow=ERzeroToMany;rounded=0;entryX=0;entryY=0.25;entryDx=0;entryDy=0;exitX=1;exitY=0.25;exitDx=0;exitDy=0;strokeWidth=3;" edge="1" parent="1" source="-u2DhF2AYnjjPQLDKzHC-14" target="ss860jDBtRXs5o9BqdNW-5">
          <mxGeometry width="100" height="100" relative="1" as="geometry">
            <mxPoint x="780" y="240" as="sourcePoint" />
            <mxPoint x="890" y="145" as="targetPoint" />
          </mxGeometry>
        </mxCell>
        <mxCell id="ss860jDBtRXs5o9BqdNW-16" value="" style="edgeStyle=entityRelationEdgeStyle;fontSize=12;html=1;endArrow=ERzeroToMany;startArrow=ERzeroToOne;rounded=0;exitX=0;exitY=0.5;exitDx=0;exitDy=0;entryX=1;entryY=0.5;entryDx=0;entryDy=0;" edge="1" parent="1" source="ss860jDBtRXs5o9BqdNW-1" target="-u2DhF2AYnjjPQLDKzHC-14">
          <mxGeometry width="100" height="100" relative="1" as="geometry">
            <mxPoint x="960" y="460.98" as="sourcePoint" />
            <mxPoint x="880" y="220" as="targetPoint" />
          </mxGeometry>
        </mxCell>
        <mxCell id="ss860jDBtRXs5o9BqdNW-17" value="" style="group" vertex="1" connectable="0" parent="1">
          <mxGeometry x="810" y="300" width="180" height="160" as="geometry" />
        </mxCell>
        <mxCell id="ss860jDBtRXs5o9BqdNW-18" value="" style="rounded=0;whiteSpace=wrap;html=1;" vertex="1" parent="ss860jDBtRXs5o9BqdNW-17">
          <mxGeometry width="180" height="137.14" as="geometry" />
        </mxCell>
        <mxCell id="ss860jDBtRXs5o9BqdNW-19" value="StudentScore" style="text;html=1;align=center;verticalAlign=middle;resizable=0;points=[];autosize=1;strokeColor=none;fillColor=none;fontStyle=1;container=1;" vertex="1" parent="ss860jDBtRXs5o9BqdNW-17">
          <mxGeometry x="1.5999999999999979" width="100" height="30" as="geometry" />
        </mxCell>
        <mxCell id="ss860jDBtRXs5o9BqdNW-20" value="&lt;div&gt;FK(Student)&lt;/div&gt;&lt;div&gt;MK(CourseCategoryQuiz)&lt;/div&gt;&lt;div&gt;MK(HomeWork)&lt;/div&gt;&lt;div&gt;MK(Project)&lt;br&gt;&lt;/div&gt;" style="text;html=1;align=left;verticalAlign=middle;resizable=0;points=[];autosize=1;strokeColor=none;fillColor=none;" vertex="1" parent="ss860jDBtRXs5o9BqdNW-17">
          <mxGeometry x="10" y="33.57" width="160" height="70" as="geometry" />
        </mxCell>
        <mxCell id="ss860jDBtRXs5o9BqdNW-21" value="" style="edgeStyle=entityRelationEdgeStyle;fontSize=12;html=1;endArrow=ERzeroToMany;startArrow=ERzeroToOne;rounded=0;entryX=0;entryY=0.25;entryDx=0;entryDy=0;exitX=1;exitY=0.75;exitDx=0;exitDy=0;" edge="1" parent="1" source="-u2DhF2AYnjjPQLDKzHC-34" target="ss860jDBtRXs5o9BqdNW-18">
          <mxGeometry width="100" height="100" relative="1" as="geometry">
            <mxPoint x="723.63" y="260" as="sourcePoint" />
            <mxPoint x="799.9999999999999" y="347.5" as="targetPoint" />
          </mxGeometry>
        </mxCell>
        <mxCell id="ss860jDBtRXs5o9BqdNW-23" value="" style="edgeStyle=entityRelationEdgeStyle;fontSize=12;html=1;endArrow=ERzeroToMany;startArrow=ERzeroToOne;rounded=0;entryX=-0.004;entryY=0.428;entryDx=0;entryDy=0;exitX=1;exitY=0.75;exitDx=0;exitDy=0;entryPerimeter=0;" edge="1" parent="1" source="-u2DhF2AYnjjPQLDKzHC-9" target="ss860jDBtRXs5o9BqdNW-18">
          <mxGeometry width="100" height="100" relative="1" as="geometry">
            <mxPoint x="740" y="250" as="sourcePoint" />
            <mxPoint x="820" y="344.2850000000001" as="targetPoint" />
          </mxGeometry>
        </mxCell>
        <mxCell id="ss860jDBtRXs5o9BqdNW-24" value="" style="edgeStyle=entityRelationEdgeStyle;fontSize=12;html=1;endArrow=ERzeroToMany;startArrow=ERzeroToOne;rounded=0;exitX=1;exitY=0.5;exitDx=0;exitDy=0;entryX=0;entryY=0.25;entryDx=0;entryDy=0;" edge="1" parent="1" source="ss860jDBtRXs5o9BqdNW-1" target="-u2DhF2AYnjjPQLDKzHC-34">
          <mxGeometry width="100" height="100" relative="1" as="geometry">
            <mxPoint x="680" y="120" as="sourcePoint" />
            <mxPoint x="690" y="435.98" as="targetPoint" />
          </mxGeometry>
        </mxCell>
      </root>
    </mxGraphModel>
  </diagram>
  <diagram id="_DeYG-kgaezbdb30Rpt1" name="Page-5">
    <mxGraphModel dx="996" dy="649" grid="1" gridSize="10" guides="1" tooltips="1" connect="1" arrows="1" fold="1" page="1" pageScale="1" pageWidth="1169" pageHeight="1654" math="0" shadow="0">
      <root>
        <mxCell id="0" />
        <mxCell id="1" parent="0" />
        <mxCell id="iibD6JLsvrbyowGeByO_-2" value="" style="edgeStyle=entityRelationEdgeStyle;fontSize=12;html=1;endArrow=ERzeroToMany;startArrow=ERzeroToOne;rounded=0;exitX=1;exitY=1;exitDx=0;exitDy=0;entryX=0.014;entryY=0.168;entryDx=0;entryDy=0;entryPerimeter=0;" edge="1" parent="1" source="iibD6JLsvrbyowGeByO_-14" target="iibD6JLsvrbyowGeByO_-4">
          <mxGeometry width="100" height="100" relative="1" as="geometry">
            <mxPoint x="280" y="370" as="sourcePoint" />
            <mxPoint x="440" y="920" as="targetPoint" />
          </mxGeometry>
        </mxCell>
        <mxCell id="iibD6JLsvrbyowGeByO_-3" value="" style="group;" vertex="1" connectable="0" parent="1">
          <mxGeometry x="459.38" y="1050" width="171.25" height="130" as="geometry" />
        </mxCell>
        <mxCell id="iibD6JLsvrbyowGeByO_-4" value="" style="rounded=0;whiteSpace=wrap;html=1;fillColor=#FFFF99;" vertex="1" parent="iibD6JLsvrbyowGeByO_-3">
          <mxGeometry width="170" height="130" as="geometry" />
        </mxCell>
        <mxCell id="iibD6JLsvrbyowGeByO_-5" value="&lt;div&gt;FK(Teacher)&lt;/div&gt;&lt;div&gt;FK(CourseCategory)&lt;br&gt;&lt;/div&gt;&lt;div&gt;FK(InputType)&lt;/div&gt;&lt;div&gt;MK(OfferedAnswer)&lt;/div&gt;" style="text;html=1;align=left;verticalAlign=middle;resizable=0;points=[];autosize=1;strokeColor=none;fillColor=none;" vertex="1" parent="iibD6JLsvrbyowGeByO_-3">
          <mxGeometry x="17.08" y="24.546363636363637" width="130" height="70" as="geometry" />
        </mxCell>
        <mxCell id="iibD6JLsvrbyowGeByO_-6" value="CourseCategoryQuiz" style="text;whiteSpace=wrap;html=1;fontStyle=1" vertex="1" parent="iibD6JLsvrbyowGeByO_-3">
          <mxGeometry x="14.166666666666668" width="155.83333333333334" height="24.545454545454547" as="geometry" />
        </mxCell>
        <mxCell id="iibD6JLsvrbyowGeByO_-7" value="&lt;div&gt;Question-title&lt;/div&gt;Right Answer" style="text;html=1;align=center;verticalAlign=middle;resizable=0;points=[];autosize=1;strokeColor=none;fillColor=none;" vertex="1" parent="iibD6JLsvrbyowGeByO_-3">
          <mxGeometry x="17.08000000000004" y="89.55000000000001" width="90" height="40" as="geometry" />
        </mxCell>
        <mxCell id="iibD6JLsvrbyowGeByO_-8" value="" style="group;fillColor=#FFE6CC;" vertex="1" connectable="0" parent="1">
          <mxGeometry x="452.5" y="1210" width="185" height="110" as="geometry" />
        </mxCell>
        <mxCell id="iibD6JLsvrbyowGeByO_-9" value="" style="rounded=0;whiteSpace=wrap;html=1;fillColor=#FFE6CC;" vertex="1" parent="iibD6JLsvrbyowGeByO_-8">
          <mxGeometry width="185.00000000000003" height="110.00000000000001" as="geometry" />
        </mxCell>
        <mxCell id="iibD6JLsvrbyowGeByO_-10" value="&lt;div&gt;FK(Student)&lt;/div&gt;&lt;div&gt;FK(CourseCategoryQuiz)&lt;br&gt;&lt;/div&gt;" style="text;html=1;align=left;verticalAlign=middle;resizable=0;points=[];autosize=1;strokeColor=none;fillColor=none;" vertex="1" parent="iibD6JLsvrbyowGeByO_-8">
          <mxGeometry x="15.415000000000003" y="30.551111111111112" width="160" height="40" as="geometry" />
        </mxCell>
        <mxCell id="iibD6JLsvrbyowGeByO_-11" value="StudentQuizSolution" style="text;whiteSpace=wrap;html=1;fontStyle=1" vertex="1" parent="iibD6JLsvrbyowGeByO_-8">
          <mxGeometry x="15.416666666666666" width="169.58333333333334" height="30" as="geometry" />
        </mxCell>
        <mxCell id="iibD6JLsvrbyowGeByO_-12" value="&lt;div&gt;Student Answer&lt;/div&gt;&lt;div align=&quot;left&quot;&gt;Score&lt;br&gt;&lt;/div&gt;" style="text;html=1;align=center;verticalAlign=middle;resizable=0;points=[];autosize=1;strokeColor=none;fillColor=none;" vertex="1" parent="iibD6JLsvrbyowGeByO_-8">
          <mxGeometry x="10" y="68.33333333333334" width="110" height="40" as="geometry" />
        </mxCell>
        <mxCell id="iibD6JLsvrbyowGeByO_-13" value="" style="endArrow=classic;html=1;rounded=0;exitX=0.5;exitY=1;exitDx=0;exitDy=0;entryX=0.455;entryY=0;entryDx=0;entryDy=0;entryPerimeter=0;" edge="1" parent="1" source="iibD6JLsvrbyowGeByO_-4" target="iibD6JLsvrbyowGeByO_-11">
          <mxGeometry width="50" height="50" relative="1" as="geometry">
            <mxPoint x="550" y="1160" as="sourcePoint" />
            <mxPoint x="600" y="1110" as="targetPoint" />
          </mxGeometry>
        </mxCell>
        <mxCell id="iibD6JLsvrbyowGeByO_-56" style="edgeStyle=orthogonalEdgeStyle;rounded=0;orthogonalLoop=1;jettySize=auto;html=1;exitX=0.5;exitY=1;exitDx=0;exitDy=0;entryX=0.5;entryY=0;entryDx=0;entryDy=0;strokeWidth=3;" edge="1" parent="1" source="iibD6JLsvrbyowGeByO_-14" target="iibD6JLsvrbyowGeByO_-23">
          <mxGeometry relative="1" as="geometry" />
        </mxCell>
        <mxCell id="iibD6JLsvrbyowGeByO_-14" value="Teacher" style="rounded=0;whiteSpace=wrap;html=1;fontStyle=1;fillColor=#E6E6E6;" vertex="1" parent="1">
          <mxGeometry x="100.18" y="310" width="120" height="170" as="geometry" />
        </mxCell>
        <mxCell id="iibD6JLsvrbyowGeByO_-15" value="CourseCategory" style="rounded=0;whiteSpace=wrap;html=1;fontStyle=1" vertex="1" parent="1">
          <mxGeometry x="930" y="986.51" width="130" height="380" as="geometry" />
        </mxCell>
        <mxCell id="iibD6JLsvrbyowGeByO_-16" value="" style="group" vertex="1" connectable="0" parent="1">
          <mxGeometry x="250" y="1060" width="100" height="90" as="geometry" />
        </mxCell>
        <mxCell id="iibD6JLsvrbyowGeByO_-54" value="" style="group" vertex="1" connectable="0" parent="iibD6JLsvrbyowGeByO_-16">
          <mxGeometry width="90" height="90" as="geometry" />
        </mxCell>
        <mxCell id="iibD6JLsvrbyowGeByO_-17" value="" style="rounded=0;whiteSpace=wrap;html=1;" vertex="1" parent="iibD6JLsvrbyowGeByO_-54">
          <mxGeometry width="90" height="90" as="geometry" />
        </mxCell>
        <mxCell id="iibD6JLsvrbyowGeByO_-19" value="&lt;div&gt;Text&lt;/div&gt;&lt;div&gt;Select&lt;/div&gt;&lt;div&gt;Multi-select&lt;br&gt;&lt;/div&gt;" style="text;html=1;align=left;verticalAlign=middle;resizable=0;points=[];autosize=1;strokeColor=none;fillColor=none;" vertex="1" parent="iibD6JLsvrbyowGeByO_-54">
          <mxGeometry x="7.496250000000005" y="19.995844155844107" width="80" height="60" as="geometry" />
        </mxCell>
        <mxCell id="iibD6JLsvrbyowGeByO_-18" value="InputQuizType" style="text;html=1;align=center;verticalAlign=middle;resizable=0;points=[];autosize=1;strokeColor=none;fillColor=none;fontStyle=1" vertex="1" parent="iibD6JLsvrbyowGeByO_-16">
          <mxGeometry x="-9.999999999999996" width="110" height="30" as="geometry" />
        </mxCell>
        <mxCell id="iibD6JLsvrbyowGeByO_-20" value="" style="edgeStyle=entityRelationEdgeStyle;fontSize=12;html=1;endArrow=ERzeroToMany;startArrow=ERzeroToOne;rounded=0;exitX=1.025;exitY=0.433;exitDx=0;exitDy=0;exitPerimeter=0;entryX=0.009;entryY=0.438;entryDx=0;entryDy=0;entryPerimeter=0;" edge="1" parent="1" source="iibD6JLsvrbyowGeByO_-17" target="iibD6JLsvrbyowGeByO_-4">
          <mxGeometry width="100" height="100" relative="1" as="geometry">
            <mxPoint x="170" y="1062.47" as="sourcePoint" />
            <mxPoint x="410" y="1060" as="targetPoint" />
          </mxGeometry>
        </mxCell>
        <mxCell id="iibD6JLsvrbyowGeByO_-21" value="" style="group" vertex="1" connectable="0" parent="1">
          <mxGeometry x="69.82" y="1228.33" width="200.36" height="140" as="geometry" />
        </mxCell>
        <mxCell id="iibD6JLsvrbyowGeByO_-22" value="" style="group" vertex="1" connectable="0" parent="iibD6JLsvrbyowGeByO_-21">
          <mxGeometry x="25.384556213999467" y="12.727272727272727" width="174.97544378600054" height="127.27272727272727" as="geometry" />
        </mxCell>
        <mxCell id="iibD6JLsvrbyowGeByO_-23" value="" style="rounded=0;whiteSpace=wrap;html=1;" vertex="1" parent="iibD6JLsvrbyowGeByO_-22">
          <mxGeometry x="-1.51" y="-2.73" width="132.97" height="127.27" as="geometry" />
        </mxCell>
        <mxCell id="iibD6JLsvrbyowGeByO_-24" value="&lt;div align=&quot;left&quot;&gt;OfferedAnswer&lt;/div&gt;" style="text;html=1;align=left;verticalAlign=middle;resizable=0;points=[];autosize=1;strokeColor=none;fillColor=none;fontStyle=1" vertex="1" parent="iibD6JLsvrbyowGeByO_-22">
          <mxGeometry x="9.972504226928361" y="16.041702314894035" width="110" height="30" as="geometry" />
        </mxCell>
        <mxCell id="iibD6JLsvrbyowGeByO_-25" value="&lt;div&gt;&lt;br&gt;&lt;/div&gt;&lt;div&gt;FK(Teacher)&lt;/div&gt;&lt;div&gt;FK(CourseCategory)&lt;br&gt;&lt;/div&gt;&lt;div&gt;a.xxx&lt;/div&gt;&lt;div&gt;&lt;br&gt;&lt;/div&gt;&lt;div&gt;&lt;br&gt;&lt;/div&gt;" style="text;html=1;align=left;verticalAlign=middle;resizable=0;points=[];autosize=1;strokeColor=none;fillColor=none;" vertex="1" parent="iibD6JLsvrbyowGeByO_-22">
          <mxGeometry x="9.975828395004005" y="25.452264411092646" width="130" height="100" as="geometry" />
        </mxCell>
        <mxCell id="iibD6JLsvrbyowGeByO_-26" value="" style="edgeStyle=entityRelationEdgeStyle;fontSize=12;html=1;endArrow=ERzeroToMany;endFill=1;startArrow=ERzeroToMany;rounded=0;entryX=0;entryY=0.75;entryDx=0;entryDy=0;exitX=1.028;exitY=0.429;exitDx=0;exitDy=0;exitPerimeter=0;strokeWidth=3;" edge="1" parent="1" source="iibD6JLsvrbyowGeByO_-23" target="iibD6JLsvrbyowGeByO_-4">
          <mxGeometry width="100" height="100" relative="1" as="geometry">
            <mxPoint x="140.18" y="1320" as="sourcePoint" />
            <mxPoint x="270.18" y="1136.4462809917354" as="targetPoint" />
          </mxGeometry>
        </mxCell>
        <mxCell id="iibD6JLsvrbyowGeByO_-27" value="Student" style="rounded=0;whiteSpace=wrap;html=1;fontStyle=1;fillColor=#E6E6E6;" vertex="1" parent="1">
          <mxGeometry x="700" y="240" width="100" height="180" as="geometry" />
        </mxCell>
        <mxCell id="iibD6JLsvrbyowGeByO_-28" value="" style="edgeStyle=entityRelationEdgeStyle;fontSize=12;html=1;endArrow=ERzeroToMany;startArrow=ERzeroToOne;rounded=0;exitX=0;exitY=0.75;exitDx=0;exitDy=0;entryX=1;entryY=0.5;entryDx=0;entryDy=0;" edge="1" parent="1" source="iibD6JLsvrbyowGeByO_-27" target="iibD6JLsvrbyowGeByO_-9">
          <mxGeometry width="100" height="100" relative="1" as="geometry">
            <mxPoint x="700" y="570" as="sourcePoint" />
            <mxPoint x="640" y="760" as="targetPoint" />
          </mxGeometry>
        </mxCell>
        <mxCell id="iibD6JLsvrbyowGeByO_-31" value="" style="group" vertex="1" connectable="0" parent="1">
          <mxGeometry x="480" y="400" width="90" height="60" as="geometry" />
        </mxCell>
        <mxCell id="iibD6JLsvrbyowGeByO_-32" value="" style="rounded=0;whiteSpace=wrap;html=1;" vertex="1" parent="iibD6JLsvrbyowGeByO_-31">
          <mxGeometry width="90" height="60" as="geometry" />
        </mxCell>
        <mxCell id="iibD6JLsvrbyowGeByO_-33" value="Team" style="text;html=1;align=center;verticalAlign=middle;resizable=0;points=[];autosize=1;strokeColor=none;fillColor=none;fontStyle=1;container=1;" vertex="1" parent="iibD6JLsvrbyowGeByO_-31">
          <mxGeometry x="20" width="50" height="30" as="geometry" />
        </mxCell>
        <mxCell id="iibD6JLsvrbyowGeByO_-34" value="name" style="text;html=1;align=center;verticalAlign=middle;resizable=0;points=[];autosize=1;strokeColor=none;fillColor=none;" vertex="1" parent="iibD6JLsvrbyowGeByO_-31">
          <mxGeometry x="20" y="20" width="50" height="30" as="geometry" />
        </mxCell>
        <mxCell id="iibD6JLsvrbyowGeByO_-35" value="" style="group" vertex="1" connectable="0" parent="1">
          <mxGeometry x="470" y="310" width="110" height="80" as="geometry" />
        </mxCell>
        <mxCell id="iibD6JLsvrbyowGeByO_-36" value="" style="rounded=0;whiteSpace=wrap;html=1;" vertex="1" parent="iibD6JLsvrbyowGeByO_-35">
          <mxGeometry width="110.00000000000001" height="80" as="geometry" />
        </mxCell>
        <mxCell id="iibD6JLsvrbyowGeByO_-37" value="Class" style="text;html=1;align=center;verticalAlign=middle;resizable=0;points=[];autosize=1;strokeColor=none;fillColor=none;fontStyle=1;container=1;" vertex="1" parent="iibD6JLsvrbyowGeByO_-35">
          <mxGeometry x="19.444444444444446" width="60" height="30" as="geometry" />
        </mxCell>
        <mxCell id="iibD6JLsvrbyowGeByO_-38" value="&lt;div&gt;MK(Student)&lt;/div&gt;&lt;div&gt;MK(Teacher)&lt;/div&gt;&lt;div&gt;FK(Team)&lt;br&gt;&lt;/div&gt;" style="text;html=1;align=left;verticalAlign=middle;resizable=0;points=[];autosize=1;strokeColor=none;fillColor=none;" vertex="1" parent="iibD6JLsvrbyowGeByO_-35">
          <mxGeometry x="10.000000000000002" y="20.001777777777775" width="90" height="60" as="geometry" />
        </mxCell>
        <mxCell id="iibD6JLsvrbyowGeByO_-39" value="" style="edgeStyle=entityRelationEdgeStyle;fontSize=12;html=1;endArrow=ERzeroToMany;endFill=1;startArrow=ERzeroToMany;rounded=0;strokeWidth=3;exitX=1;exitY=0.5;exitDx=0;exitDy=0;entryX=0;entryY=0.25;entryDx=0;entryDy=0;" edge="1" parent="1" source="iibD6JLsvrbyowGeByO_-36" target="iibD6JLsvrbyowGeByO_-27">
          <mxGeometry width="100" height="100" relative="1" as="geometry">
            <mxPoint x="520" y="310" as="sourcePoint" />
            <mxPoint x="630" y="430" as="targetPoint" />
          </mxGeometry>
        </mxCell>
        <mxCell id="iibD6JLsvrbyowGeByO_-40" value="" style="edgeStyle=entityRelationEdgeStyle;fontSize=12;html=1;endArrow=ERzeroToMany;endFill=1;startArrow=ERzeroToMany;rounded=0;entryX=0;entryY=0.25;entryDx=0;entryDy=0;exitX=1;exitY=0.25;exitDx=0;exitDy=0;strokeWidth=3;" edge="1" parent="1" source="iibD6JLsvrbyowGeByO_-14" target="iibD6JLsvrbyowGeByO_-36">
          <mxGeometry width="100" height="100" relative="1" as="geometry">
            <mxPoint x="740" y="560" as="sourcePoint" />
            <mxPoint x="850" y="465" as="targetPoint" />
          </mxGeometry>
        </mxCell>
        <mxCell id="iibD6JLsvrbyowGeByO_-41" value="" style="edgeStyle=entityRelationEdgeStyle;fontSize=12;html=1;endArrow=ERzeroToMany;startArrow=ERzeroToOne;rounded=0;exitX=0;exitY=0.5;exitDx=0;exitDy=0;entryX=0.994;entryY=0.349;entryDx=0;entryDy=0;entryPerimeter=0;" edge="1" parent="1" source="iibD6JLsvrbyowGeByO_-32" target="iibD6JLsvrbyowGeByO_-14">
          <mxGeometry width="100" height="100" relative="1" as="geometry">
            <mxPoint x="920" y="780.98" as="sourcePoint" />
            <mxPoint x="840" y="540" as="targetPoint" />
          </mxGeometry>
        </mxCell>
        <mxCell id="iibD6JLsvrbyowGeByO_-48" value="" style="edgeStyle=entityRelationEdgeStyle;fontSize=12;html=1;endArrow=ERzeroToMany;startArrow=ERzeroToOne;rounded=0;exitX=1;exitY=0.5;exitDx=0;exitDy=0;" edge="1" parent="1" source="iibD6JLsvrbyowGeByO_-32" target="iibD6JLsvrbyowGeByO_-27">
          <mxGeometry width="100" height="100" relative="1" as="geometry">
            <mxPoint x="640" y="440" as="sourcePoint" />
            <mxPoint x="650" y="755.98" as="targetPoint" />
          </mxGeometry>
        </mxCell>
        <mxCell id="iibD6JLsvrbyowGeByO_-49" value="" style="group;" vertex="1" connectable="0" parent="1">
          <mxGeometry x="420" y="500" width="171.25" height="90" as="geometry" />
        </mxCell>
        <mxCell id="iibD6JLsvrbyowGeByO_-50" value="" style="rounded=0;whiteSpace=wrap;html=1;fillColor=#FFFF99;" vertex="1" parent="iibD6JLsvrbyowGeByO_-49">
          <mxGeometry width="170" height="90" as="geometry" />
        </mxCell>
        <mxCell id="iibD6JLsvrbyowGeByO_-51" value="&lt;div&gt;FK(Teacher)&lt;/div&gt;&lt;div&gt;FK(CourseCategory)&lt;br&gt;&lt;/div&gt;" style="text;html=1;align=left;verticalAlign=middle;resizable=0;points=[];autosize=1;strokeColor=none;fillColor=none;" vertex="1" parent="iibD6JLsvrbyowGeByO_-49">
          <mxGeometry x="14.169999999999998" y="29.998251748251747" width="130" height="40" as="geometry" />
        </mxCell>
        <mxCell id="iibD6JLsvrbyowGeByO_-52" value="Course" style="text;whiteSpace=wrap;html=1;fontStyle=1" vertex="1" parent="iibD6JLsvrbyowGeByO_-49">
          <mxGeometry x="14.166666666666668" width="155.83333333333334" height="16.993006993006993" as="geometry" />
        </mxCell>
        <mxCell id="iibD6JLsvrbyowGeByO_-59" value="" style="edgeStyle=entityRelationEdgeStyle;fontSize=12;html=1;endArrow=ERzeroToMany;startArrow=ERzeroToOne;rounded=0;exitX=1.037;exitY=0.43;exitDx=0;exitDy=0;entryX=0;entryY=0.25;entryDx=0;entryDy=0;exitPerimeter=0;" edge="1" parent="1" source="iibD6JLsvrbyowGeByO_-14" target="iibD6JLsvrbyowGeByO_-50">
          <mxGeometry width="100" height="100" relative="1" as="geometry">
            <mxPoint x="240" y="430" as="sourcePoint" />
            <mxPoint x="490" y="440" as="targetPoint" />
          </mxGeometry>
        </mxCell>
        <mxCell id="iibD6JLsvrbyowGeByO_-60" value="" style="group;" vertex="1" connectable="0" parent="1">
          <mxGeometry x="430" y="610" width="171.25" height="90" as="geometry" />
        </mxCell>
        <mxCell id="iibD6JLsvrbyowGeByO_-61" value="" style="rounded=0;whiteSpace=wrap;html=1;fillColor=#FFFF99;" vertex="1" parent="iibD6JLsvrbyowGeByO_-60">
          <mxGeometry width="170" height="90" as="geometry" />
        </mxCell>
        <mxCell id="iibD6JLsvrbyowGeByO_-62" value="&lt;div&gt;FK(Teacher)&lt;/div&gt;&lt;div&gt;FK(CourseCategory)&lt;br&gt;&lt;/div&gt;" style="text;html=1;align=left;verticalAlign=middle;resizable=0;points=[];autosize=1;strokeColor=none;fillColor=none;" vertex="1" parent="iibD6JLsvrbyowGeByO_-60">
          <mxGeometry x="17.08" y="27.37825174825175" width="130" height="40" as="geometry" />
        </mxCell>
        <mxCell id="iibD6JLsvrbyowGeByO_-63" value="HomeWorks" style="text;whiteSpace=wrap;html=1;fontStyle=1" vertex="1" parent="iibD6JLsvrbyowGeByO_-60">
          <mxGeometry x="14.166666666666668" width="155.83333333333334" height="16.993006993006993" as="geometry" />
        </mxCell>
        <mxCell id="iibD6JLsvrbyowGeByO_-64" value="" style="group;" vertex="1" connectable="0" parent="1">
          <mxGeometry x="440" y="827" width="171.25" height="90" as="geometry" />
        </mxCell>
        <mxCell id="iibD6JLsvrbyowGeByO_-65" value="" style="rounded=0;whiteSpace=wrap;html=1;fillColor=#FFFF99;" vertex="1" parent="iibD6JLsvrbyowGeByO_-64">
          <mxGeometry width="170" height="90" as="geometry" />
        </mxCell>
        <mxCell id="iibD6JLsvrbyowGeByO_-66" value="&lt;div&gt;FK(Teacher)&lt;/div&gt;&lt;div&gt;FK(CourseCategory)&lt;br&gt;&lt;/div&gt;" style="text;html=1;align=left;verticalAlign=middle;resizable=0;points=[];autosize=1;strokeColor=none;fillColor=none;" vertex="1" parent="iibD6JLsvrbyowGeByO_-64">
          <mxGeometry x="17.08" y="27.37825174825175" width="130" height="40" as="geometry" />
        </mxCell>
        <mxCell id="iibD6JLsvrbyowGeByO_-67" value="Projects" style="text;whiteSpace=wrap;html=1;fontStyle=1" vertex="1" parent="iibD6JLsvrbyowGeByO_-64">
          <mxGeometry x="14.166666666666668" width="155.83333333333334" height="16.993006993006993" as="geometry" />
        </mxCell>
        <mxCell id="iibD6JLsvrbyowGeByO_-68" value="" style="edgeStyle=entityRelationEdgeStyle;fontSize=12;html=1;endArrow=ERzeroToMany;startArrow=ERzeroToOne;rounded=0;exitX=1.006;exitY=0.582;exitDx=0;exitDy=0;entryX=-0.018;entryY=0.169;entryDx=0;entryDy=0;exitPerimeter=0;entryPerimeter=0;" edge="1" parent="1" source="iibD6JLsvrbyowGeByO_-14" target="iibD6JLsvrbyowGeByO_-61">
          <mxGeometry width="100" height="100" relative="1" as="geometry">
            <mxPoint x="244.43999999999983" y="410.20000000000005" as="sourcePoint" />
            <mxPoint x="430" y="532.5000000000002" as="targetPoint" />
          </mxGeometry>
        </mxCell>
        <mxCell id="iibD6JLsvrbyowGeByO_-69" value="" style="edgeStyle=entityRelationEdgeStyle;fontSize=12;html=1;endArrow=ERzeroToMany;startArrow=ERzeroToOne;rounded=0;exitX=1;exitY=0.75;exitDx=0;exitDy=0;entryX=0;entryY=0.25;entryDx=0;entryDy=0;" edge="1" parent="1" source="iibD6JLsvrbyowGeByO_-14" target="iibD6JLsvrbyowGeByO_-65">
          <mxGeometry width="100" height="100" relative="1" as="geometry">
            <mxPoint x="254.43999999999983" y="420.20000000000005" as="sourcePoint" />
            <mxPoint x="440" y="542.5000000000002" as="targetPoint" />
          </mxGeometry>
        </mxCell>
        <mxCell id="iibD6JLsvrbyowGeByO_-72" value="" style="group;fillColor=#FFE6CC;" vertex="1" connectable="0" parent="1">
          <mxGeometry x="730" y="480" width="152.5" height="90" as="geometry" />
        </mxCell>
        <mxCell id="iibD6JLsvrbyowGeByO_-73" value="" style="rounded=0;whiteSpace=wrap;html=1;fillColor=#FFE6CC;" vertex="1" parent="iibD6JLsvrbyowGeByO_-72">
          <mxGeometry width="150.0013292098291" height="90.00000000000001" as="geometry" />
        </mxCell>
        <mxCell id="iibD6JLsvrbyowGeByO_-74" value="&lt;div&gt;FK(ChapterCategory)&lt;/div&gt;&lt;div&gt;&lt;br&gt;&lt;/div&gt;FK(Course)" style="text;html=1;align=left;verticalAlign=middle;resizable=0;points=[];autosize=1;strokeColor=none;fillColor=none;" vertex="1" parent="iibD6JLsvrbyowGeByO_-72">
          <mxGeometry x="12.498759404159545" y="16.81454545454546" width="140" height="60" as="geometry" />
        </mxCell>
        <mxCell id="iibD6JLsvrbyowGeByO_-75" value="Chapter" style="text;whiteSpace=wrap;html=1;fontStyle=1" vertex="1" parent="iibD6JLsvrbyowGeByO_-72">
          <mxGeometry x="12.500110767485756" width="137.50121844234334" height="24.54545454545455" as="geometry" />
        </mxCell>
        <mxCell id="iibD6JLsvrbyowGeByO_-79" value="" style="edgeStyle=entityRelationEdgeStyle;fontSize=12;html=1;endArrow=ERzeroToMany;startArrow=ERzeroToOne;rounded=0;exitX=0;exitY=0.25;exitDx=0;exitDy=0;entryX=1;entryY=1;entryDx=0;entryDy=0;" edge="1" parent="1" source="iibD6JLsvrbyowGeByO_-15" target="iibD6JLsvrbyowGeByO_-63">
          <mxGeometry width="100" height="100" relative="1" as="geometry">
            <mxPoint x="770" y="630" as="sourcePoint" />
            <mxPoint x="629.9999999999998" y="617.5" as="targetPoint" />
          </mxGeometry>
        </mxCell>
        <mxCell id="iibD6JLsvrbyowGeByO_-81" value="" style="edgeStyle=entityRelationEdgeStyle;fontSize=12;html=1;endArrow=ERzeroToMany;startArrow=ERzeroToOne;rounded=0;entryX=1;entryY=0.5;entryDx=0;entryDy=0;exitX=0;exitY=0.75;exitDx=0;exitDy=0;" edge="1" parent="1" source="iibD6JLsvrbyowGeByO_-15" target="iibD6JLsvrbyowGeByO_-4">
          <mxGeometry width="100" height="100" relative="1" as="geometry">
            <mxPoint x="987.5999999999999" y="709.0200000000002" as="sourcePoint" />
            <mxPoint x="599.9999999999998" y="779.9999999999998" as="targetPoint" />
          </mxGeometry>
        </mxCell>
        <mxCell id="iibD6JLsvrbyowGeByO_-84" value="" style="edgeStyle=entityRelationEdgeStyle;fontSize=12;html=1;endArrow=ERzeroToMany;startArrow=ERzeroToOne;rounded=0;strokeWidth=1;exitX=0.004;exitY=0.364;exitDx=0;exitDy=0;entryX=1;entryY=1;entryDx=0;entryDy=0;exitPerimeter=0;" edge="1" parent="1" source="iibD6JLsvrbyowGeByO_-15" target="iibD6JLsvrbyowGeByO_-67">
          <mxGeometry width="100" height="100" relative="1" as="geometry">
            <mxPoint x="710" y="850" as="sourcePoint" />
            <mxPoint x="610" y="750" as="targetPoint" />
          </mxGeometry>
        </mxCell>
        <mxCell id="iibD6JLsvrbyowGeByO_-86" value="" style="edgeStyle=entityRelationEdgeStyle;fontSize=12;html=1;endArrow=ERzeroToMany;startArrow=ERzeroToOne;rounded=0;strokeWidth=1;exitX=0.009;exitY=0.17;exitDx=0;exitDy=0;entryX=1;entryY=0.75;entryDx=0;entryDy=0;exitPerimeter=0;" edge="1" parent="1" source="iibD6JLsvrbyowGeByO_-15" target="iibD6JLsvrbyowGeByO_-50">
          <mxGeometry width="100" height="100" relative="1" as="geometry">
            <mxPoint x="820" y="837" as="sourcePoint" />
            <mxPoint x="720" y="737" as="targetPoint" />
          </mxGeometry>
        </mxCell>
        <mxCell id="iibD6JLsvrbyowGeByO_-87" value="" style="edgeStyle=entityRelationEdgeStyle;fontSize=12;html=1;endArrow=ERzeroToMany;startArrow=ERzeroToOne;rounded=0;entryX=0.446;entryY=1.022;entryDx=0;entryDy=0;exitX=0.5;exitY=1;exitDx=0;exitDy=0;entryPerimeter=0;" edge="1" parent="1" source="iibD6JLsvrbyowGeByO_-15" target="iibD6JLsvrbyowGeByO_-25">
          <mxGeometry width="100" height="100" relative="1" as="geometry">
            <mxPoint x="990" y="767.5000000000002" as="sourcePoint" />
            <mxPoint x="629.56" y="1034.9999999999998" as="targetPoint" />
          </mxGeometry>
        </mxCell>
        <mxCell id="iibD6JLsvrbyowGeByO_-98" value="ChapterCategory" style="rounded=0;whiteSpace=wrap;html=1;fontStyle=1" vertex="1" parent="1">
          <mxGeometry x="930" y="430" width="120" height="40" as="geometry" />
        </mxCell>
        <mxCell id="iibD6JLsvrbyowGeByO_-99" value="" style="edgeStyle=entityRelationEdgeStyle;fontSize=12;html=1;endArrow=ERzeroToMany;startArrow=ERzeroToOne;rounded=0;strokeWidth=1;exitX=0;exitY=0.75;exitDx=0;exitDy=0;" edge="1" parent="1" source="iibD6JLsvrbyowGeByO_-98" target="iibD6JLsvrbyowGeByO_-74">
          <mxGeometry width="100" height="100" relative="1" as="geometry">
            <mxPoint x="990.52" y="623.2" as="sourcePoint" />
            <mxPoint x="599.9999999999998" y="577.5" as="targetPoint" />
          </mxGeometry>
        </mxCell>
        <mxCell id="iibD6JLsvrbyowGeByO_-100" value="" style="edgeStyle=entityRelationEdgeStyle;fontSize=12;html=1;endArrow=ERzeroToMany;startArrow=ERzeroToOne;rounded=0;exitX=1;exitY=0.25;exitDx=0;exitDy=0;entryX=0;entryY=0.25;entryDx=0;entryDy=0;" edge="1" parent="1" source="iibD6JLsvrbyowGeByO_-50" target="iibD6JLsvrbyowGeByO_-73">
          <mxGeometry width="100" height="100" relative="1" as="geometry">
            <mxPoint x="600" y="520" as="sourcePoint" />
            <mxPoint x="760" y="470" as="targetPoint" />
          </mxGeometry>
        </mxCell>
        <mxCell id="iibD6JLsvrbyowGeByO_-101" value="User" style="rounded=0;whiteSpace=wrap;html=1;fontStyle=1" vertex="1" parent="1">
          <mxGeometry x="452.5" y="210" width="80" height="50" as="geometry" />
        </mxCell>
        <mxCell id="iibD6JLsvrbyowGeByO_-110" style="edgeStyle=orthogonalEdgeStyle;rounded=0;orthogonalLoop=1;jettySize=auto;html=1;entryX=0.5;entryY=0;entryDx=0;entryDy=0;strokeWidth=1;" edge="1" parent="1" source="iibD6JLsvrbyowGeByO_-102" target="iibD6JLsvrbyowGeByO_-101">
          <mxGeometry relative="1" as="geometry" />
        </mxCell>
        <mxCell id="iibD6JLsvrbyowGeByO_-102" value="UserRole" style="rounded=0;whiteSpace=wrap;html=1;fontStyle=1" vertex="1" parent="1">
          <mxGeometry x="452.5" y="130" width="80" height="50" as="geometry" />
        </mxCell>
        <mxCell id="iibD6JLsvrbyowGeByO_-103" value="&lt;div&gt;MK(User)&lt;/div&gt;&lt;div&gt;MK(UserRole)&lt;br&gt;&lt;/div&gt;" style="text;html=1;align=left;verticalAlign=middle;resizable=0;points=[];autosize=1;strokeColor=none;fillColor=none;" vertex="1" parent="1">
          <mxGeometry x="110.18" y="350" width="100" height="40" as="geometry" />
        </mxCell>
        <mxCell id="iibD6JLsvrbyowGeByO_-104" value="&lt;div&gt;MK(User)&lt;/div&gt;&lt;div&gt;MK(UserRole)&lt;br&gt;&lt;/div&gt;" style="text;html=1;align=left;verticalAlign=middle;resizable=0;points=[];autosize=1;strokeColor=none;fillColor=none;" vertex="1" parent="1">
          <mxGeometry x="710" y="260" width="100" height="40" as="geometry" />
        </mxCell>
        <mxCell id="iibD6JLsvrbyowGeByO_-106" value="" style="edgeStyle=entityRelationEdgeStyle;fontSize=12;html=1;endArrow=ERzeroToMany;startArrow=ERzeroToOne;rounded=0;exitX=0;exitY=0.5;exitDx=0;exitDy=0;entryX=1.015;entryY=0.192;entryDx=0;entryDy=0;entryPerimeter=0;" edge="1" parent="1" source="iibD6JLsvrbyowGeByO_-101" target="iibD6JLsvrbyowGeByO_-14">
          <mxGeometry width="100" height="100" relative="1" as="geometry">
            <mxPoint x="235.6300000000001" y="105" as="sourcePoint" />
            <mxPoint x="390" y="270" as="targetPoint" />
          </mxGeometry>
        </mxCell>
        <mxCell id="iibD6JLsvrbyowGeByO_-108" value="" style="edgeStyle=entityRelationEdgeStyle;fontSize=12;html=1;endArrow=ERzeroToMany;startArrow=ERzeroToOne;rounded=0;exitX=1;exitY=0.5;exitDx=0;exitDy=0;entryX=-0.013;entryY=0.149;entryDx=0;entryDy=0;entryPerimeter=0;" edge="1" parent="1" source="iibD6JLsvrbyowGeByO_-101" target="iibD6JLsvrbyowGeByO_-27">
          <mxGeometry width="100" height="100" relative="1" as="geometry">
            <mxPoint x="450" y="75" as="sourcePoint" />
            <mxPoint x="740" y="260" as="targetPoint" />
          </mxGeometry>
        </mxCell>
      </root>
    </mxGraphModel>
  </diagram>
</mxfile>
